<svg width="357" height="298" viewBox="0 0 357 298" fill="none" xmlns="http://www.w3.org/2000/svg">
<path d="M64.1597 246.193L83.2451 236.468C83.7025 236.235 84.6593 237.188 86.1156 239.327C87.5303 241.487 89.0851 244.23 90.78 247.556C92.4749 250.883 92.8234 252.8 91.8255 253.308L72.7401 263.033L74.3609 266.214C74.9329 267.336 73.327 268.862 69.5432 270.79C68.0463 271.552 66.5263 272.013 64.983 272.171C63.377 272.308 62.3622 271.961 61.9385 271.129L60.8897 269.071C58.1039 270.49 55.4701 271.335 52.9886 271.604C50.4859 271.832 48.4079 271.66 46.7548 271.088C45.0389 270.496 43.4352 269.558 41.9437 268.276C39.7169 266.372 37.8197 263.882 36.2519 260.805C32.3113 253.072 31.6091 248.558 34.1455 247.266C36.8898 245.868 39.2729 244.994 41.2947 244.645C43.3165 244.295 44.5604 244.578 45.0265 245.493C45.2172 245.867 45.4526 246.638 45.7328 247.804C45.9502 248.95 46.292 249.981 46.758 250.896C47.9869 253.307 49.4329 254.089 51.0961 253.242C51.5119 253.03 51.9163 252.693 52.3093 252.231L48.0827 243.936C47.5106 242.813 49.0542 241.32 52.7132 239.455C54.3349 238.629 55.9381 238.126 57.5229 237.947C59.0449 237.748 60.0072 238.043 60.4097 238.833L64.1597 246.193Z" fill="#333333"/>
<path d="M74.7178 206.723C75.5281 210.891 75.1799 214.358 73.6731 217.123C73.0355 218.245 71.9863 219.329 70.5255 220.373C69.0557 221.372 67.2443 222.081 65.0913 222.499C62.9383 222.918 60.9621 222.779 59.1629 222.083C57.3548 221.341 55.8731 220.322 54.7177 219.025C53.5624 217.728 52.5185 216.148 51.5859 214.285C50.2283 211.459 49.2023 208.26 48.5077 204.686L48.067 202.419C46.1888 202.784 44.985 203.683 44.4555 205.117C44.2417 205.73 44.2461 206.608 44.4687 207.753C44.6824 208.853 45.2429 210.146 46.1501 211.634C47.0483 213.076 47.9205 214.261 48.7667 215.19C49.567 216.128 50.0028 216.78 50.074 217.146C50.2343 217.971 49.3759 219.303 47.4989 221.141C45.5761 222.989 43.7214 224.086 41.9349 224.433C41.3393 224.549 40.3959 223.853 39.1044 222.345C37.8129 220.837 36.4795 218.624 35.1042 215.706C33.6741 212.752 32.6741 209.808 32.1043 206.877C31.5344 203.945 31.2966 201.376 31.3909 199.171C31.4305 196.929 31.6647 195.077 32.0936 193.615C32.5136 192.107 33.2072 190.784 34.1744 189.645C35.1326 188.46 36.0253 187.55 36.8524 186.914C37.6707 186.232 38.7905 185.634 40.2118 185.12C41.8444 184.47 43.8976 183.904 46.3713 183.423L67.0542 179.403C67.5581 179.305 68.2108 180.462 69.0123 182.873C69.7591 185.248 70.3684 187.649 70.8404 190.077C71.3034 192.459 71.5374 194.03 71.5425 194.789C71.5386 195.503 71.4584 195.947 71.3019 196.12C71.1454 196.293 70.847 196.47 70.4067 196.65L66.5969 197.961L66.7037 198.511C71.0492 198.855 73.7205 201.592 74.7178 206.723ZM61.5215 199.732L53.482 201.295C53.7135 202.486 54.4044 203.35 55.5547 203.887C56.705 204.424 57.9214 204.568 59.2041 204.319C62.2275 203.731 63.6056 202.75 63.3385 201.376C63.2227 200.78 62.9963 200.349 62.6591 200.082C62.2672 199.777 61.888 199.661 61.5215 199.732Z" fill="#333333"/>
<path d="M47.036 127.706L68.5664 128.835C69.0791 128.861 69.4289 130.212 69.6159 132.885C69.7563 135.556 69.752 138.313 69.603 141.156C69.4565 143.952 69.2447 145.763 68.9677 146.59C68.6466 147.367 68.1831 147.74 67.5773 147.709L45.3478 146.544C43.2507 146.434 41.871 146.455 41.2088 146.607C40.549 146.713 39.9592 146.822 39.4392 146.935C38.5367 147.215 38.0634 147.774 38.0194 148.613C37.9511 149.918 38.546 150.603 39.8043 150.669L67.3465 152.113C67.8591 152.139 68.2089 153.49 68.3959 156.163C68.5388 158.787 68.5357 161.521 68.3867 164.364C68.2402 167.16 68.0284 168.971 67.7514 169.798C67.4279 170.622 66.9632 171.018 66.3573 170.987L31.8946 169.181C30.916 169.129 30.0069 167.75 29.1675 165.042C28.3305 162.288 27.9901 159.42 28.1464 156.437C28.3027 153.454 29.2528 151.822 30.9967 151.539L34.1054 151.071L34.1311 150.582C31.4989 149.089 29.7336 146.66 28.8352 143.295C28.4866 141.922 28.355 140.419 28.4405 138.788C28.6872 134.081 30.2746 130.987 33.2029 129.505C36.087 127.974 40.698 127.374 47.036 127.706Z" fill="#333333"/>
<path d="M85.9423 113.556C84.9503 114.287 83.6886 114.975 82.1572 115.62C80.6484 116.224 79.0782 116.554 77.4465 116.61C73.5575 116.695 69.2457 115.426 64.5111 112.801C61.5724 111.173 59.2204 109.255 57.4551 107.049C55.649 104.821 54.4865 102.683 53.9679 100.635C53.4492 98.5863 53.2681 96.4583 53.4247 94.2508C53.6797 90.7105 54.5877 87.5323 56.1488 84.716C58.7732 79.9814 60.9618 76.8993 62.7146 75.4699C64.49 73.9996 66.2552 73.7509 68.0103 74.7237C69.7654 75.6966 71.4619 77.0638 73.0999 78.8255C74.7197 80.5237 75.2467 81.883 74.6811 82.9034C74.5001 83.2299 73.5989 84.0376 71.9774 85.3264C70.3786 86.5744 69.2398 87.8107 68.5611 89.0351C67.905 90.2188 67.8857 91.4086 68.5033 92.6047C69.1027 93.7372 70.7901 95.0728 73.5656 96.6112C76.3002 98.1271 78.3361 98.8821 79.6732 98.8763C80.9695 98.8479 81.9458 98.2418 82.6019 97.0582C83.2806 95.8337 83.7095 94.0973 83.8887 91.8489C84.0679 89.6005 84.214 88.3743 84.3271 88.1702C84.757 87.3947 86.0826 87.1691 88.3039 87.4933C90.5479 87.7767 92.3841 88.3144 93.8126 89.1062C96.0167 90.328 96.9342 92.3305 96.5652 95.1139C96.1553 97.8747 94.8644 101.214 92.6925 105.133C90.5432 109.01 88.2931 111.818 85.9423 113.556Z" fill="#333333"/>
<path d="M106.755 50.1761L129.395 76.2211C129.732 76.6086 128.986 77.8134 127.158 79.8357C125.334 81.7921 123.348 83.7041 121.199 85.5717C119.086 87.4087 117.636 88.5146 116.849 88.8896C116.067 89.1988 115.477 89.1244 115.078 88.6666L93.2645 63.5725C92.591 62.7976 92.9189 61.1832 94.2483 58.729C95.5822 56.2091 97.4291 53.9235 99.7888 51.8722C102.994 49.0861 105.316 48.5208 106.755 50.1761ZM87.4919 42.5276C89.8164 40.5069 91.9363 39.2824 93.8518 38.854C95.7718 38.3598 97.5126 39.0107 99.074 40.8069C101.829 43.9767 100.742 47.7047 95.811 51.991C90.8803 56.2773 87.0371 56.8355 84.2817 53.6657C81.5263 50.4959 82.5963 46.7832 87.4919 42.5276Z" fill="#333333"/>
<path d="M209.258 62.5062C208.472 65.4361 209.477 67.2756 212.272 68.0244C213.895 68.4592 216.158 68.486 219.063 68.1047C221.979 67.6783 223.505 67.4832 223.64 67.5195C224.497 67.749 225.279 69.3356 225.988 72.2794C226.697 75.2232 226.888 77.3036 226.562 78.5207C226.091 80.2786 223.932 81.1253 220.084 81.0606C216.237 80.9958 212.577 80.4984 209.106 79.5684C205.681 78.6505 202.868 77.607 200.669 76.438C198.515 75.2811 196.803 74.0977 195.533 72.8877C194.32 71.6448 193.313 70.2638 192.512 68.7448C191.757 67.2378 191.253 65.871 191.002 64.6442C190.763 63.3723 190.667 62.018 190.714 60.5811C190.795 58.477 191.119 56.3656 191.686 54.247C193.885 46.0431 197.542 40.9597 202.657 38.9968C205.199 37.9868 207.861 37.5166 210.645 37.586C213.428 37.6555 216.6 38.1673 220.162 39.1215C231.566 42.1773 236.205 47.6719 234.079 55.6054C231.821 64.0347 224.291 66.5343 211.489 63.104L209.258 62.5062ZM211.767 52.5982L210.572 57.0608C211.879 57.411 213.077 57.1765 214.166 56.3571C215.301 55.5499 216.067 54.4025 216.466 52.9149C217.19 50.2103 216.854 48.6708 215.457 48.2964C213.879 47.8737 212.649 49.3076 211.767 52.5982Z" fill="#333333"/>
<path d="M285.204 58.5808L251.308 94.9291C250.958 95.3045 249.699 94.7047 247.531 93.1295C245.395 91.5201 243.285 89.7447 241.204 87.8033C239.156 85.8937 237.904 84.5672 237.449 83.8236C237.06 83.0778 237.072 82.483 237.486 82.0394L270.522 46.6126C271.222 45.8617 272.862 46.0191 275.441 47.0846C278.055 48.182 280.471 49.7651 282.69 51.8338C285.83 54.7619 286.668 57.0109 285.204 58.5808Z" fill="#333333"/>
<path d="M269.507 123.093C267.4 120.297 265.831 117.711 264.799 115.333C263.767 112.956 263.248 110.483 263.242 107.917C263.146 102.672 266.453 97.5214 273.161 92.4662C279.124 87.9726 284.698 86.49 289.881 88.0182C294.71 89.4633 299.062 92.7574 302.938 97.9006C304.595 100.1 305.901 102.066 306.857 103.8C307.85 105.505 308.615 107.412 309.152 109.521C309.717 111.666 309.787 113.658 309.362 115.498C308.964 117.375 307.98 119.403 306.407 121.581C304.872 123.731 302.707 125.859 299.912 127.966C294.247 132.234 288.772 133.848 283.487 132.805C278.239 131.734 273.579 128.497 269.507 123.093ZM278.934 112.921C277.788 114.193 277.184 115.058 277.119 115.515C277.083 116.01 277.234 116.481 277.571 116.928C277.936 117.413 278.347 117.687 278.805 117.751C279.29 117.853 280.288 117.51 281.798 116.723C283.337 115.972 285.112 114.839 287.125 113.323C289.174 111.778 290.698 110.542 291.694 109.616C292.756 108.699 293.529 107.941 294.013 107.343C294.525 106.782 294.865 106.263 295.031 105.787C295.263 105.086 295.196 104.494 294.831 104.009C294.494 103.562 294.064 103.301 293.542 103.228C293.056 103.126 292.025 103.465 290.45 104.243C288.912 104.993 286.894 106.309 284.397 108.191C281.9 110.072 280.079 111.649 278.934 112.921Z" fill="#333333"/>
<path d="M287.899 168.533L307.12 165.489C310.577 164.941 313.067 164.405 314.59 163.88C316.113 163.356 316.791 162.563 316.623 161.503C316.477 160.581 315.782 160.219 314.538 160.416L287.297 164.73C286.79 164.811 286.164 163.54 285.417 160.917C284.717 158.288 284.145 155.567 283.7 152.756C283.254 149.944 283.088 148.151 283.202 147.377C283.362 146.596 283.741 146.158 284.34 146.063L332.253 138.474C333.221 138.321 334.401 139.504 335.792 142.024C337.184 144.545 338.113 147.279 338.58 150.229C339.069 153.318 338.803 155.368 337.782 156.38C337.457 156.715 337.088 156.915 336.673 156.981L326.509 158.591L321.618 158.586L321.695 159.07C322.765 159.562 323.778 160.441 324.735 161.707C326.527 164.069 327.663 166.771 328.145 169.813C328.839 174.192 327.9 177.364 325.329 179.331C322.812 181.336 318.419 182.835 312.151 183.827L290.856 187.2C290.349 187.281 289.719 185.987 288.965 183.318C288.265 180.689 287.693 177.968 287.247 175.156C286.809 172.391 286.647 170.621 286.761 169.847C286.921 169.066 287.3 168.628 287.899 168.533Z" fill="#333333"/>
<path d="M286.048 210.341C286.419 206.11 287.709 202.874 289.919 200.631C290.842 199.728 292.149 198.976 293.841 198.374C295.529 197.819 297.466 197.637 299.651 197.829C301.836 198.02 303.697 198.698 305.235 199.863C306.768 201.075 307.912 202.463 308.665 204.028C309.418 205.593 309.986 207.399 310.369 209.447C310.895 212.538 310.999 215.896 310.682 219.523L310.481 221.824C312.387 221.991 313.792 221.458 314.696 220.225C315.07 219.696 315.308 218.85 315.41 217.688C315.508 216.572 315.325 215.174 314.863 213.494C314.397 211.861 313.886 210.481 313.328 209.355C312.817 208.232 312.578 207.485 312.611 207.113C312.684 206.277 313.876 205.233 316.187 203.983C318.545 202.737 320.63 202.194 322.443 202.352C323.048 202.405 323.763 203.334 324.588 205.14C325.414 206.945 326.086 209.44 326.604 212.624C327.164 215.858 327.314 218.963 327.054 221.939C326.793 224.914 326.314 227.449 325.616 229.542C324.959 231.687 324.224 233.402 323.409 234.69C322.589 236.023 321.558 237.104 320.314 237.932C319.066 238.807 317.957 239.436 316.987 239.819C316.012 240.249 314.771 240.516 313.263 240.618C311.515 240.793 309.385 240.77 306.875 240.551L285.885 238.714C285.374 238.67 285.065 237.378 284.959 234.839C284.896 232.351 284.972 229.875 285.187 227.411C285.399 224.993 285.607 223.419 285.812 222.687C286.012 222.002 286.211 221.598 286.409 221.475C286.608 221.351 286.943 221.264 287.416 221.211L291.44 221.001L291.489 220.443C287.406 218.915 285.593 215.547 286.048 210.341ZM296.807 220.698L304.966 221.412C305.071 220.203 304.645 219.182 303.688 218.349C302.73 217.515 301.6 217.042 300.299 216.928C297.23 216.659 295.635 217.222 295.513 218.617C295.46 219.221 295.559 219.699 295.81 220.048C296.102 220.449 296.435 220.665 296.807 220.698Z" fill="#333333"/>
<path d="M300.853 279.161L270.67 262.43C270.221 262.181 270.51 260.794 271.536 258.268C272.581 255.806 273.794 253.33 275.174 250.84C276.531 248.391 277.516 246.856 278.127 246.234C278.756 245.676 279.336 245.544 279.867 245.838L308.948 261.958C309.846 262.456 310.09 264.085 309.68 266.846C309.289 269.67 308.335 272.45 306.819 275.184C304.76 278.899 302.772 280.224 300.853 279.161ZM321.57 279.76C320.077 282.453 318.504 284.329 316.85 285.387C315.215 286.508 313.357 286.492 311.275 285.338C307.602 283.302 307.349 279.426 310.516 273.712C313.684 267.998 317.104 266.159 320.778 268.195C324.451 270.231 324.715 274.086 321.57 279.76Z" fill="#333333"/>
<path d="M90.6012 142.596C92.3315 142.615 93.8929 139.564 96.4813 135.104C104.688 120.499 118.046 110.674 132.808 101.92C136.691 97.7115 124.062 98.0672 121.959 98.9547C104.044 102.903 88.4856 118.004 88.1306 136.647C88.036 140.307 88.5784 142.574 90.6012 142.596ZM254.698 129.907C212.522 82.8367 153.754 85.2254 113.651 124.465C79.3404 158.034 88.4271 217.607 101.386 238.606C113.747 258.647 142.717 278.536 186.608 276.436C220.236 274.832 247.7 261.44 261.299 246.44C287.857 217.132 282.376 160.804 254.698 129.907Z" fill="#37474F"/>
<path d="M195.596 266.364C232.6 261.82 260.481 240.892 257.869 219.619C255.257 198.346 223.142 184.785 186.137 189.328C149.132 193.872 121.251 214.8 123.863 236.073C126.475 257.346 158.591 270.907 195.596 266.364Z" fill="#263238"/>
<path d="M232.422 189.886C205.502 178.519 164.732 183.525 141.365 201.067C129.678 209.838 124.556 220.085 125.719 229.556L126.049 232.24C127.212 241.712 134.68 250.409 148.122 256.095C175.043 267.465 215.809 262.46 239.179 244.914C250.866 236.143 255.989 225.9 254.822 216.429L254.496 213.776C253.348 204.299 245.897 195.576 232.422 189.886Z" fill="#333333"/>
<path opacity="0.3" d="M232.422 189.886C205.502 178.519 164.732 183.525 141.365 201.067C129.678 209.838 124.556 220.085 125.719 229.556L126.049 232.24C127.212 241.712 134.68 250.409 148.122 256.095C175.043 267.465 215.809 262.46 239.179 244.914C250.866 236.143 255.989 225.9 254.822 216.429L254.496 213.776C253.348 204.299 245.897 195.576 232.422 189.886Z" fill="white"/>
<path opacity="0.1" d="M173.015 259.199L164.44 189.36C155.84 192.224 147.92 196.167 141.366 201.074C129.679 209.846 124.557 220.093 125.72 229.564L126.049 232.248C127.212 241.719 134.68 250.417 148.123 256.106C157.203 259.914 167.846 261.893 178.843 262.156C173.644 261.878 173.015 259.199 173.015 259.199Z" fill="black"/>
<path d="M232.422 189.886C205.502 178.519 164.732 183.525 141.365 201.067C117.999 218.608 120.872 242.044 147.792 253.411C174.712 264.778 215.479 259.772 238.849 242.23C262.22 224.689 259.342 201.253 232.422 189.886Z" fill="#333333"/>
<path opacity="0.8" d="M232.422 189.886C205.502 178.519 164.732 183.525 141.365 201.067C117.999 218.608 120.872 242.044 147.792 253.411C174.712 264.778 215.479 259.772 238.849 242.23C262.22 224.689 259.342 201.253 232.422 189.886Z" fill="white"/>
<path opacity="0.15" d="M221.267 199.731C201.547 191.399 171.689 195.065 154.571 207.92C137.453 220.775 139.564 237.933 159.278 246.257C178.993 254.582 208.856 250.923 225.974 238.068C243.092 225.213 240.981 208.056 221.267 199.731Z" fill="#333333"/>
<path d="M217.652 204.432C200.376 197.138 174.214 200.351 159.216 211.607C144.218 222.864 146.046 237.917 163.34 245.201C180.635 252.485 206.778 249.283 221.777 238.026C236.775 226.769 234.929 211.738 217.652 204.432Z" fill="#333333"/>
<path opacity="0.8" d="M217.652 204.432C200.376 197.138 174.214 200.351 159.216 211.607C144.218 222.864 146.046 237.917 163.34 245.201C180.635 252.485 206.778 249.283 221.777 238.026C236.775 226.769 234.929 211.738 217.652 204.432Z" fill="white"/>
<path d="M147.152 251.323C152.854 253.447 158.79 254.889 164.836 255.619C170.857 256.369 176.933 256.595 182.995 256.293C189.05 255.997 195.073 255.239 201.013 254.025C206.948 252.826 212.772 251.133 218.424 248.964C224.074 246.834 229.463 244.068 234.484 240.719C239.455 237.357 244.005 233.269 247.284 228.279C248.938 225.801 250.156 223.062 250.886 220.178C251.616 217.285 251.703 214.269 251.141 211.341C250.566 208.394 249.392 205.595 247.691 203.118C246.843 201.869 245.895 200.689 244.858 199.59C243.822 198.481 242.713 197.441 241.54 196.477C242.772 197.377 243.943 198.356 245.047 199.408C246.147 200.475 247.158 201.628 248.071 202.856C249.93 205.331 251.258 208.159 251.975 211.167C252.657 214.211 252.663 217.367 251.995 220.416C251.303 223.453 250.095 226.351 248.423 228.983C246.767 231.607 244.799 234.022 242.562 236.175C240.347 238.329 237.955 240.294 235.411 242.051C230.302 245.5 224.808 248.346 219.04 250.533C207.526 254.886 195.358 257.271 183.05 257.589C176.917 257.776 170.78 257.385 164.722 256.422C161.702 255.925 158.713 255.257 155.769 254.423C152.824 253.602 149.944 252.565 147.152 251.323Z" fill="white"/>
<path opacity="0.2" d="M211.709 205.911C198.002 200.122 177.239 202.672 165.34 211.604C153.44 220.537 154.902 232.473 168.613 238.261C182.324 244.049 203.083 241.5 214.982 232.568C226.882 223.635 225.422 211.711 211.709 205.911Z" fill="#333333"/>
<path opacity="0.2" d="M214.343 227.978L169.284 209.877L125.73 229.647C126.928 239.082 134.353 247.749 147.792 253.411C155.34 256.602 163.977 258.501 173.015 259.195L214.343 227.978Z" fill="#333333"/>
<path d="M120.211 202.585C121.421 212.437 131.539 216.328 139.23 218.502C145.001 220.123 149.273 220.384 152.413 222.372C151.986 221.042 141.587 188.47 141.587 188.47C138.744 187.177 135.576 186.761 132.492 187.277C130.615 187.562 128.837 188.3 127.312 189.426L124.156 191.805C121.559 193.721 119.538 197.103 120.211 202.585ZM129.676 199.431C129.526 198.025 129.875 196.61 130.661 195.431C131.028 195.315 131.405 195.233 131.787 195.185C133.102 194.99 134.442 195.058 135.729 195.385C137.016 195.712 138.225 196.291 139.285 197.088C141.525 201.497 143.424 206.071 144.965 210.769C144.638 210.685 144.312 210.598 143.967 210.493C134.345 207.811 130.281 204.355 129.678 199.447L129.676 199.431Z" fill="#FAFAFA"/>
<path d="M120.211 202.585C121.421 212.437 131.539 216.328 139.23 218.502C145.001 220.123 149.273 220.384 152.413 222.372C149.091 212.026 142.19 197.265 138.444 190.831C135.602 189.529 132.431 189.107 129.343 189.619C125.324 190.208 119.101 193.541 120.211 202.585ZM126.516 201.81C126.425 201.033 126.488 200.245 126.703 199.492C126.917 198.738 127.279 198.034 127.766 197.419C128.254 196.805 128.858 196.292 129.545 195.909C130.231 195.527 130.987 195.283 131.768 195.192C133.082 194.997 134.422 195.065 135.71 195.391C136.997 195.718 138.206 196.297 139.265 197.095C141.614 201.494 145.234 210.52 145.807 214.078C144.195 213.723 142.625 213.378 140.81 212.868C131.203 210.168 127.138 206.712 126.536 201.808L126.516 201.81Z" fill="#E0E0E0"/>
<path opacity="0.1" d="M140.255 212.709C141.758 215.293 143.501 217.731 145.461 219.991C148.237 220.61 150.531 221.181 152.413 222.372C149.091 212.026 142.191 197.265 138.444 190.831C136.892 190.124 135.234 189.672 133.536 189.494L134.153 194.52C134.179 194.732 134.205 194.94 134.231 195.152C136.059 195.333 137.802 196.009 139.271 197.106C141.619 201.505 145.239 210.532 145.812 214.09C144.201 213.734 142.63 213.389 140.816 212.879L140.255 212.709Z" fill="black"/>
<path d="M233.32 172.435C232.455 165.396 226.921 158.931 216.918 154.707C196.913 146.262 166.621 149.982 149.253 163.015C140.573 169.533 136.764 177.146 137.628 184.185L138.897 194.519C140.449 207.154 146.978 218.653 157.048 226.485C162.034 230.363 167.739 233.225 173.839 234.906C179.938 236.588 186.311 237.056 192.594 236.284C205.283 234.725 216.836 228.211 224.712 218.176C232.587 208.14 236.14 195.404 234.588 182.77L233.32 172.435Z" fill="#FAFAFA"/>
<path d="M182.15 151.221C194.859 149.661 207.148 151.036 216.754 155.093C226.282 159.101 232.007 165.296 232.89 172.488L234.159 182.823C234.921 189.024 234.448 195.316 232.768 201.338C231.088 207.36 228.233 212.995 224.367 217.921C220.501 222.847 215.7 226.967 210.237 230.047C204.774 233.127 198.756 235.106 192.528 235.87C186.299 236.635 179.981 236.171 173.936 234.504C167.89 232.838 162.234 230.001 157.291 226.157C152.349 222.312 148.216 217.535 145.129 212.099C142.042 206.662 140.061 200.672 139.299 194.47L138.03 184.135C137.147 176.943 141.217 169.562 149.479 163.354C157.822 157.092 169.414 152.785 182.122 151.225M182.071 150.809C169.824 152.313 157.91 156.5 149.226 163.018C140.542 169.537 136.737 177.149 137.601 184.188L138.87 194.523C139.638 200.781 141.638 206.826 144.754 212.313C147.87 217.799 152.042 222.619 157.031 226.497C162.02 230.375 167.729 233.236 173.831 234.915C179.933 236.594 186.309 237.06 192.594 236.284C205.284 234.725 216.837 228.211 224.712 218.176C232.587 208.14 236.14 195.404 234.589 182.77L233.32 172.435C232.455 165.396 226.922 158.931 216.919 154.707C206.916 150.483 194.343 149.302 182.099 150.806L182.071 150.809Z" fill="#E0E0E0"/>
<path d="M176.761 230.805C155.738 224.755 154.579 208.835 161.32 208.776C168.061 208.717 180.616 209.553 196.47 204.516L191.225 160.594L143.585 168.16C138.943 173.357 136.983 178.927 137.628 184.185L138.897 194.519C140.449 207.154 146.978 218.653 157.048 226.485C167.118 234.318 179.904 237.842 192.594 236.284C203.828 234.92 214.221 229.649 221.94 221.402C214.98 227.892 197.788 236.853 176.761 230.805Z" fill="#E0E0E0"/>
<path d="M216.918 154.707C196.913 146.262 166.621 149.982 149.253 163.015C131.885 176.048 134.028 193.464 154.029 201.913C174.031 210.362 204.33 206.638 221.695 193.605C239.059 180.572 236.924 163.155 216.918 154.707ZM219.929 191.277C211.937 197.276 200.773 201.411 188.497 202.918C176.222 204.425 164.388 203.107 155.18 199.227C146.51 195.568 141.315 190.1 140.545 183.834C139.776 177.568 143.494 171.006 151.021 165.355C159.016 159.355 170.177 155.221 182.456 153.713C194.735 152.205 206.564 153.517 215.77 157.405C224.44 161.068 229.639 166.535 230.408 172.801C231.178 179.067 227.454 185.621 219.929 191.277Z" fill="white"/>
<path d="M215.769 157.401C206.563 153.509 194.73 152.198 182.455 153.705C170.18 155.212 159.011 159.347 151.02 165.351C143.486 171 139.771 177.557 140.541 183.827C140.768 185.624 141.346 187.36 142.244 188.935C143.471 184.403 146.911 179.875 152.306 175.827C160.298 169.827 171.463 165.693 183.742 164.185C196.021 162.677 207.85 163.989 217.056 167.877C223.27 170.499 227.698 174.049 229.995 178.16C230.483 176.415 230.623 174.591 230.407 172.793C229.638 166.527 224.439 161.06 215.769 157.401Z" fill="#EBEBEB"/>
<path d="M182.455 153.705C170.176 155.213 159.011 159.347 151.02 165.351C143.486 171 139.771 177.557 140.541 183.827C140.768 185.624 141.346 187.36 142.244 188.935C143.471 184.403 146.911 179.875 152.306 175.827C160.298 169.827 171.463 165.693 183.742 164.185C184.506 164.091 185.271 163.997 186.035 163.935C183.08 164.266 176.671 163.547 178.262 159.27C179.937 154.795 185.388 153.385 189.511 153.149C187.185 153.232 184.827 153.414 182.455 153.705Z" fill="#E0E0E0"/>
<path opacity="0.1" d="M182.455 153.705C170.176 155.213 159.011 159.347 151.02 165.351C143.486 171 139.771 177.557 140.541 183.827C140.768 185.624 141.346 187.36 142.244 188.935C143.471 184.403 146.911 179.875 152.306 175.827C160.298 169.827 171.463 165.693 183.742 164.185C184.506 164.091 185.271 163.997 186.035 163.935C183.08 164.266 176.671 163.547 178.262 159.27C179.937 154.795 185.388 153.385 189.511 153.149C187.185 153.232 184.827 153.414 182.455 153.705Z" fill="black"/>
<path d="M230.407 172.793C229.728 167.257 225.589 162.344 218.655 158.751C222.083 161.847 221.154 168.254 214.396 166.841L214.349 166.847C215.273 167.168 216.178 167.506 217.056 167.881C223.27 170.503 227.698 174.053 229.995 178.164C230.484 176.418 230.624 174.593 230.407 172.793Z" fill="#E0E0E0"/>
<path opacity="0.1" d="M230.407 172.793C229.728 167.257 225.589 162.344 218.655 158.751C222.083 161.847 221.154 168.254 214.396 166.841L214.349 166.847C215.273 167.168 216.178 167.506 217.056 167.881C223.27 170.503 227.698 174.053 229.995 178.164C230.484 176.418 230.624 174.593 230.407 172.793Z" fill="black"/>
<path d="M217.056 167.877C207.85 163.989 196.017 162.678 183.742 164.185C171.467 165.692 160.298 169.827 152.307 175.827C146.911 179.875 143.47 184.391 142.244 188.935C144.535 193.035 148.965 196.597 155.183 199.219C164.384 203.107 176.221 204.418 188.497 202.91C200.772 201.403 211.936 197.268 219.928 191.269C225.323 187.221 228.76 182.701 229.995 178.16C227.698 174.05 223.27 170.499 217.056 167.877Z" fill="#333333"/>
<path opacity="0.4" d="M217.056 167.877C207.85 163.989 196.017 162.678 183.742 164.185C171.467 165.692 160.298 169.827 152.307 175.827C146.911 179.875 143.47 184.391 142.244 188.935C144.535 193.035 148.965 196.597 155.183 199.219C164.384 203.107 176.221 204.418 188.497 202.91C200.772 201.403 211.936 197.268 219.928 191.269C225.323 187.221 228.76 182.701 229.995 178.16C227.698 174.05 223.27 170.499 217.056 167.877Z" fill="black"/>
<path opacity="0.3" d="M152.307 175.827C146.911 179.875 143.47 184.391 142.244 188.935C144.535 193.034 148.965 196.597 155.183 199.219C161.958 202.083 170.158 203.541 178.911 203.514C176.161 202.458 172.415 200.134 169.494 199.891C168.483 199.808 167.497 199.626 166.493 199.463C163.658 199.014 162.689 198.229 162.058 197.618C161.005 196.632 160.37 195.109 160.739 193.717C161.033 192.828 161.565 192.036 162.278 191.425C164.685 189.166 167.952 188.024 170.494 185.92C171.152 185.377 171.786 184.714 171.924 183.881C172.079 182.962 171.591 182.05 170.956 181.371C170.32 180.692 169.536 180.167 168.886 179.502C168.236 178.837 167.712 177.954 167.803 177.031C167.862 176.445 168.108 175.894 168.506 175.459C170.204 173.657 172.613 173.071 174.171 172.501C174.748 172.303 175.277 171.985 175.723 171.569C176.169 171.154 176.522 170.649 176.758 170.088C177.249 168.973 176.424 167.76 176.899 166.642C177.18 166.009 177.617 165.458 178.171 165.04C168.113 167.012 159.055 170.749 152.307 175.827ZM153.529 189.891C153.425 189.961 153.306 190.006 153.181 190.021C153.057 190.036 152.93 190.022 152.812 189.979C152.766 189.971 152.724 189.948 152.693 189.914C152.661 189.881 152.64 189.838 152.635 189.792C152.629 189.746 152.638 189.699 152.661 189.659C152.684 189.618 152.719 189.586 152.762 189.567C152.866 189.497 152.985 189.452 153.11 189.437C153.234 189.422 153.361 189.436 153.479 189.479C153.523 189.489 153.563 189.513 153.593 189.547C153.623 189.58 153.642 189.622 153.648 189.667C153.653 189.712 153.645 189.758 153.624 189.798C153.603 189.838 153.57 189.87 153.529 189.891ZM158.82 195.805C158.497 196.021 158.127 196.159 157.741 196.206C157.355 196.254 156.963 196.21 156.597 196.078C155.939 195.8 155.869 195.231 156.441 194.803C156.763 194.586 157.133 194.449 157.519 194.401C157.905 194.354 158.297 194.398 158.663 194.53C159.321 194.807 159.391 195.376 158.82 195.805ZM159.427 192.803C159.323 192.873 159.204 192.918 159.079 192.933C158.954 192.948 158.828 192.934 158.71 192.891C158.664 192.883 158.622 192.86 158.59 192.826C158.558 192.793 158.538 192.75 158.532 192.704C158.527 192.658 158.536 192.611 158.559 192.571C158.582 192.53 158.617 192.498 158.659 192.479C158.764 192.411 158.884 192.368 159.008 192.353C159.132 192.338 159.258 192.351 159.376 192.391C159.421 192.402 159.46 192.425 159.491 192.459C159.521 192.492 159.54 192.535 159.546 192.579C159.551 192.624 159.543 192.67 159.522 192.71C159.5 192.75 159.467 192.782 159.427 192.803ZM159.306 188.039C158.796 188.38 158.212 188.597 157.602 188.672C156.992 188.747 156.373 188.678 155.795 188.47C154.757 188.032 154.646 187.129 155.547 186.453C156.058 186.112 156.642 185.895 157.252 185.82C157.862 185.745 158.481 185.814 159.058 186.022C160.097 186.468 160.208 187.37 159.307 188.046L159.306 188.039ZM165.332 175.677C165.497 175.567 165.685 175.497 165.881 175.472C166.078 175.448 166.277 175.471 166.463 175.538C166.536 175.552 166.602 175.587 166.652 175.641C166.703 175.694 166.735 175.762 166.743 175.834C166.752 175.907 166.738 175.981 166.702 176.045C166.666 176.108 166.61 176.159 166.543 176.19C166.379 176.3 166.191 176.37 165.994 176.394C165.798 176.418 165.598 176.396 165.412 176.328C165.342 176.313 165.278 176.276 165.229 176.223C165.18 176.17 165.15 176.103 165.141 176.031C165.132 175.96 165.146 175.887 165.18 175.824C165.214 175.76 165.268 175.709 165.332 175.677ZM160.683 180.354C159.645 179.916 159.534 179.014 160.435 178.338C160.945 177.996 161.528 177.779 162.137 177.704C162.747 177.63 163.365 177.699 163.942 177.907C164.98 178.345 165.091 179.247 164.19 179.924C163.68 180.266 163.098 180.483 162.488 180.559C161.879 180.634 161.26 180.565 160.683 180.358L160.683 180.354ZM163.937 187.705C163.772 187.816 163.584 187.886 163.386 187.91C163.189 187.934 162.989 187.912 162.802 187.844C162.731 187.83 162.667 187.794 162.618 187.741C162.568 187.688 162.537 187.621 162.529 187.549C162.52 187.478 162.534 187.405 162.569 187.342C162.603 187.279 162.657 187.228 162.723 187.197C162.888 187.086 163.076 187.016 163.274 186.992C163.471 186.968 163.671 186.99 163.858 187.058C163.929 187.072 163.993 187.108 164.042 187.161C164.091 187.214 164.123 187.281 164.131 187.353C164.14 187.424 164.126 187.497 164.091 187.56C164.056 187.623 164.003 187.674 163.937 187.705ZM168.398 182.071C169.583 182.575 169.71 183.607 168.681 184.378C168.098 184.768 167.432 185.016 166.736 185.101C166.039 185.187 165.333 185.108 164.673 184.871C163.488 184.371 163.361 183.339 164.39 182.563C164.973 182.174 165.639 181.926 166.335 181.841C167.031 181.755 167.738 181.834 168.398 182.071ZM170.915 172.144C170.811 172.213 170.692 172.258 170.569 172.273C170.445 172.288 170.319 172.274 170.201 172.232C170.163 172.218 170.129 172.194 170.103 172.162C170.077 172.13 170.061 172.091 170.056 172.05C170.051 172.01 170.058 171.968 170.075 171.931C170.092 171.894 170.119 171.862 170.153 171.839C170.257 171.77 170.376 171.726 170.499 171.711C170.623 171.695 170.749 171.709 170.867 171.752C170.911 171.761 170.951 171.784 170.982 171.817C171.013 171.851 171.032 171.893 171.038 171.938C171.043 171.983 171.035 172.028 171.013 172.068C170.991 172.108 170.957 172.14 170.917 172.16L170.915 172.144Z" fill="#333333"/>
<path opacity="0.3" d="M217.056 167.877C214.887 166.968 212.656 166.216 210.379 165.626C209.798 165.828 209.236 166.081 208.7 166.382C208.089 166.671 207.581 167.139 207.245 167.723C206.55 169.171 207.815 170.776 209.088 171.754C211.03 173.182 213.13 174.384 215.347 175.335C216.512 175.865 217.723 176.373 218.647 177.256C219.572 178.138 220.166 179.495 219.762 180.703C219.472 181.591 218.714 182.234 218.093 182.939C217.472 183.645 216.944 184.59 217.229 185.479C217.449 186.161 218.084 186.609 218.627 187.091C219.17 187.574 219.644 188.273 219.436 188.96C219.229 189.646 218.454 189.952 217.761 190.137C215.185 190.82 212.453 190.988 209.993 192.031C209.036 192.371 208.21 193.002 207.631 193.834C207.172 194.596 207.063 195.529 206.569 196.267C205.455 197.941 203.045 197.894 201.061 198.253C198.509 198.71 196.227 200.093 194.062 201.522C193.71 201.752 193.37 202.005 193.02 202.224C203.49 200.349 212.924 196.518 219.929 191.277C225.324 187.229 228.761 182.709 229.995 178.168C227.698 174.049 223.27 170.499 217.056 167.877ZM213.596 169.803C213.086 170.144 212.502 170.361 211.892 170.436C211.282 170.511 210.663 170.442 210.085 170.234C209.047 169.796 208.936 168.893 209.837 168.217C210.348 167.876 210.931 167.659 211.542 167.584C212.152 167.509 212.771 167.578 213.348 167.786C214.386 168.224 214.497 169.127 213.596 169.803ZM216.883 172.307C216.605 172.492 216.286 172.61 215.954 172.651C215.621 172.692 215.284 172.654 214.968 172.542C214.403 172.301 214.344 171.822 214.833 171.439C215.112 171.254 215.43 171.136 215.763 171.095C216.095 171.054 216.433 171.092 216.748 171.204C217.314 171.445 217.374 171.936 216.883 172.307ZM212.298 194.548C211.983 194.759 211.623 194.893 211.246 194.94C210.87 194.986 210.487 194.943 210.131 194.814C209.49 194.546 209.421 193.985 209.978 193.57C210.293 193.359 210.653 193.224 211.03 193.178C211.407 193.132 211.789 193.175 212.145 193.304C212.786 193.572 212.856 194.137 212.298 194.548ZM214.778 193.08C214.597 193.202 214.389 193.28 214.172 193.307C213.955 193.333 213.734 193.308 213.529 193.234C213.456 193.211 213.392 193.168 213.343 193.109C213.294 193.051 213.264 192.98 213.254 192.905C213.245 192.83 213.258 192.753 213.291 192.685C213.324 192.616 213.376 192.559 213.441 192.519C213.622 192.397 213.83 192.32 214.047 192.293C214.265 192.266 214.485 192.291 214.69 192.366C214.763 192.389 214.828 192.432 214.876 192.49C214.925 192.548 214.956 192.619 214.965 192.695C214.974 192.77 214.961 192.846 214.928 192.915C214.895 192.983 214.843 193.04 214.778 193.08ZM222.38 180.067C222.529 179.968 222.699 179.906 222.876 179.884C223.053 179.862 223.233 179.882 223.401 179.942C223.705 180.072 223.737 180.335 223.473 180.53C223.326 180.631 223.156 180.695 222.978 180.717C222.801 180.738 222.62 180.717 222.453 180.656C222.153 180.529 222.119 180.254 222.384 180.067L222.38 180.067ZM224.581 185.64C223.914 186.085 223.152 186.368 222.356 186.465C221.56 186.563 220.752 186.473 219.998 186.202C218.643 185.628 218.498 184.447 219.674 183.566C220.34 183.121 221.102 182.838 221.899 182.74C222.695 182.642 223.503 182.732 224.257 183.003C225.619 183.573 225.764 184.754 224.585 185.639L224.581 185.64ZM225.176 177C224.81 177.245 224.391 177.401 223.954 177.455C223.516 177.508 223.072 177.458 222.658 177.309C221.912 177.002 221.831 176.343 222.48 175.857C222.845 175.612 223.264 175.456 223.702 175.402C224.139 175.348 224.583 175.398 224.998 175.548C225.748 175.862 225.828 176.513 225.18 176.999L225.176 177ZM227.891 177.415C227.743 177.516 227.573 177.579 227.396 177.601C227.218 177.623 227.038 177.602 226.87 177.54C226.567 177.414 226.535 177.151 226.798 176.952C226.947 176.853 227.116 176.79 227.294 176.768C227.471 176.747 227.651 176.767 227.819 176.827C228.127 176.956 228.159 177.219 227.895 177.415L227.891 177.415Z" fill="#333333"/>
<path opacity="0.4" d="M177.447 165.209C167.692 167.203 158.91 170.87 152.306 175.827C146.911 179.875 143.47 184.391 142.244 188.935C144.535 193.035 148.965 196.597 155.183 199.219C157.558 200.214 160.007 201.023 162.508 201.641C157.446 199.506 152.136 196.008 151.447 190.557C150.085 179.76 162.098 168.818 177.447 165.209Z" fill="black"/>
<path opacity="0.1" d="M201.552 261.677C201.551 261.638 201.546 261.598 201.538 261.56C201.538 261.544 201.536 261.528 201.532 261.513C201.515 261.477 201.495 261.444 201.472 261.413L201.442 261.368C201.412 261.336 201.379 261.307 201.344 261.281C201.33 261.267 201.315 261.254 201.299 261.243C201.24 261.204 201.179 261.17 201.114 261.142L137.802 235.803C138.545 234.443 138.898 232.906 138.821 231.361C138.813 231.229 138.797 231.098 138.772 230.969C138.772 230.969 138.769 230.937 138.767 230.921C138.485 229.02 136.809 227.127 133.43 225.376C126.389 221.72 110.961 219.643 105.038 224.082C102.973 225.634 102.589 227.593 103.316 229.599C104.018 231.767 105.841 234.466 109.261 237.268L109.288 237.293C109.511 237.473 109.731 237.637 109.979 237.833L110.072 237.906C110.337 238.108 110.614 238.313 110.899 238.517C112.788 239.918 114.88 241.027 117.103 241.806C117.748 242.026 118.405 242.211 119.071 242.361C120.134 242.601 121.215 242.755 122.303 242.82C123.935 242.913 125.573 242.854 127.194 242.646C129.927 242.319 132.515 241.244 134.673 239.541L195.255 266.493C197.158 267.299 201.86 264.089 201.679 262.582C201.661 262.437 201.589 261.848 201.57 261.691C201.558 261.689 201.553 261.685 201.552 261.677Z" fill="black"/>
<path d="M126.909 240.454C133.963 239.588 139.162 234.015 138.515 228.742L103.053 227.425C103.859 229.918 106.153 233.13 110.636 236.343C115.118 239.556 119.851 241.321 126.909 240.454Z" fill="#EBEBEB"/>
<path opacity="0.15" d="M126.909 240.454C133.963 239.588 139.162 234.015 138.515 228.742L103.053 227.425C103.859 229.918 106.153 233.13 110.636 236.343C115.118 239.556 119.851 241.321 126.909 240.454Z" fill="black"/>
<path opacity="0.15" d="M136.847 229.755C137.394 233.523 133.434 238.765 126.373 239.608C119.521 240.422 112.892 238.169 107.62 233.905C108.573 234.783 109.58 235.6 110.637 236.351C115.124 239.567 119.852 241.329 126.91 240.462C133.968 239.596 139.164 234.023 138.516 228.75L136.696 228.683C136.75 229.062 136.799 229.423 136.847 229.755Z" fill="black"/>
<path d="M133.174 223.197C126.133 219.541 110.706 217.464 104.783 221.903C98.8597 226.342 106.725 234.103 114.931 236.887C123.049 239.642 130.159 238.323 135.023 234.675C139.888 231.027 140.146 226.813 133.174 223.197Z" fill="#E6E6E6"/>
<path d="M111.571 219.979C118.959 219.072 128.269 221.071 133.002 223.525C136.271 225.222 138.011 227.076 138.174 229.027C138.316 230.766 137.151 232.617 134.799 234.38C132.228 236.279 129.203 237.475 126.025 237.847C122.32 238.249 118.572 237.806 115.066 236.552C108.962 234.474 103.735 229.986 103.15 226.326C102.892 224.716 103.518 223.333 105.009 222.214C106.5 221.095 108.719 220.337 111.572 219.987M111.526 219.618C108.803 219.952 106.429 220.682 104.784 221.915C98.8656 226.358 106.726 234.115 114.932 236.899C118.491 238.169 122.294 238.618 126.054 238.214C129.303 237.844 132.398 236.628 135.025 234.687C139.889 231.035 140.147 226.821 133.175 223.205C128.087 220.564 118.627 218.746 111.534 219.617L111.526 219.618Z" fill="#E0E0E0"/>
<path d="M129.623 224.573C122.77 221.148 109.022 218.802 104.86 222.436C100.698 226.069 109.112 233.121 116.789 235.826C124.374 238.507 130.228 237.609 133.651 234.608C137.075 231.607 136.403 227.962 129.623 224.573Z" fill="#F0F0F0"/>
<path d="M122.33 223.915C117.468 221.489 107.72 219.826 104.766 222.415C101.812 225.004 107.786 229.978 113.226 231.899C118.666 233.82 122.758 233.162 125.185 231.036C127.612 228.91 127.137 226.319 122.33 223.915Z" fill="#FAFAFA"/>
<path d="M200.812 258.941L136.649 233.256C135.575 234.289 134.378 235.187 133.086 235.932L133.195 236.819L194.971 264.306C196.873 265.108 201.573 261.882 201.394 260.391C201.377 260.249 201.304 259.657 201.285 259.504C201.269 259.375 201.215 259.253 201.131 259.153C201.047 259.054 200.937 258.98 200.812 258.941Z" fill="#E0E0E0"/>
<path opacity="0.25" d="M200.812 258.941L136.649 233.256C135.578 234.292 134.381 235.191 133.086 235.932L133.195 236.819L194.971 264.306C196.873 265.108 201.573 261.882 201.394 260.391C201.377 260.249 201.304 259.657 201.285 259.504C201.269 259.375 201.215 259.253 201.131 259.153C201.047 259.054 200.937 258.98 200.812 258.941Z" fill="black"/>
<path d="M194.862 263.419C197.063 264.343 203.016 259.881 200.814 258.952L136.649 233.256C135.578 234.292 134.381 235.191 133.086 235.932L194.862 263.419Z" fill="#F0F0F0"/>
<path d="M137.123 234.146C137.123 234.146 190.675 255.45 194.667 257.039C199.039 258.772 201.663 259.485 199.242 261.304C196.4 263.437 195.56 262.748 195.56 262.748C196.564 262.519 197.503 262.065 198.304 261.419C199.721 260.249 198.225 259.107 195.038 258.041C191.851 256.974 137.123 234.146 137.123 234.146Z" fill="#FAFAFA"/>
<path opacity="0.2" d="M189.014 184.224C189.177 180.081 186.949 177.181 182.639 174.982C177.663 172.442 169.519 169.117 166.602 160.279C161.146 143.636 181.907 131.557 185.843 127.839C190.302 123.628 192.61 120.437 191.065 113.617C199.726 119.296 204.688 133.348 191.307 143.701C181.019 151.655 175.902 159.958 183.129 167.406C190.751 175.276 191.762 178.685 189.014 184.224Z" fill="white"/>
<path opacity="0.2" d="M194.277 124.271C194.401 129.612 188.679 134.063 184.786 136.986C180.893 139.909 176.605 142.587 173.468 146.449C170.816 149.713 169.198 154.026 169.829 158.318C170.842 165.104 175.36 168.281 179.678 169.79C179.849 169.848 179.946 169.757 179.393 169.426C176.788 167.755 174.369 165.483 173.37 163.308C172.064 160.457 171.571 157.686 172.038 155.072C172.937 150.046 176.484 146.258 180.307 143.12C186.032 138.434 195.211 132.822 194.448 124.234C194.43 124.049 194.276 124.167 194.277 124.271Z" fill="white"/>
<path opacity="0.2" d="M180.398 101.342C186.916 107.71 187.52 117.912 179.806 124.375C172.091 130.838 159.752 138.897 161.364 149.48C155.718 143.57 154.18 134.531 161.628 127.264C165.285 123.692 172.808 119.344 176.527 114.777C179.745 110.817 181.602 106.033 180.398 101.342Z" fill="white"/>
<path d="M123.317 130.729C123.487 132.118 123.619 133.456 121.644 134.017C123.764 133.725 123.775 135.078 124.078 136.737C123.928 135.059 123.931 133.844 125.577 133.562C123.828 133.49 123.778 132.692 123.317 130.729Z" fill="#455A64"/>
<path d="M250.447 138.841C250.617 140.226 250.746 141.568 248.77 142.125C250.895 141.837 250.901 143.19 251.205 144.849C251.059 143.171 251.057 141.952 252.706 141.67C250.957 141.598 250.904 140.8 250.447 138.841Z" fill="#455A64"/>
<path d="M135.861 155.324C136.031 156.713 136.159 158.051 134.184 158.612C136.308 158.32 136.315 159.673 136.622 161.332C136.472 159.654 136.471 158.439 138.12 158.157C136.372 158.085 136.318 157.287 135.861 155.324Z" fill="#455A64"/>
<path d="M98.5007 190.514C98.6197 191.483 98.7575 192.41 100.187 192.454C98.7052 192.636 98.9313 193.532 98.999 194.703C98.8151 193.53 98.6119 192.723 97.4506 192.81C98.6205 192.467 98.521 191.918 98.5007 190.514Z" fill="#EBEBEB"/>
<path d="M222.471 129.268C222.59 130.234 222.728 131.164 224.157 131.208C222.676 131.39 222.898 132.287 222.97 133.457C222.786 132.284 222.582 131.477 221.421 131.564C222.601 131.208 222.492 130.672 222.471 129.268Z" fill="#EBEBEB"/>
<path d="M109.372 178.617C109.543 180.006 109.745 181.359 111.799 181.406C109.663 181.64 109.989 182.958 110.088 184.647C109.828 182.978 109.53 181.792 107.857 181.918C109.564 181.421 109.4 180.637 109.372 178.617Z" fill="#E0E0E0"/>
<path d="M229.248 143.638C229.419 145.031 229.62 146.38 231.675 146.431C229.539 146.661 229.865 147.979 229.968 149.667C229.703 147.999 229.41 146.817 227.737 146.942C229.42 146.445 229.28 145.658 229.248 143.638Z" fill="#E0E0E0"/>
<path d="M202.757 101.006C202.928 102.399 203.13 103.748 205.183 103.795C203.048 104.029 203.374 105.347 203.473 107.036C203.212 105.367 202.915 104.185 201.246 104.306C202.929 103.813 202.785 103.026 202.757 101.006Z" fill="#E0E0E0"/>
<path d="M107.814 191.86C108.135 195.843 107.906 197.237 104.506 198.28C108.066 198.15 108.653 200.356 109.254 203.587C108.965 200.317 109.393 197.78 112.606 197.23C109.195 197.079 108.708 195.685 107.814 191.86Z" fill="#455A64"/>
<path d="M218.672 134.614C219.001 138.954 218.761 140.489 215.055 141.617C218.942 141.479 219.582 143.885 220.244 147.42C219.925 143.843 220.397 141.073 223.903 140.471C220.18 140.319 219.649 138.795 218.672 134.614Z" fill="#455A64"/>
<path d="M157.917 105.839C158.016 109.447 158.368 110.913 154.842 111.872C158.462 111.674 158.701 113.787 159.267 116.829C158.998 113.759 158.817 111.67 162.026 110.99C158.725 110.917 158.758 109.427 157.917 105.839Z" fill="#455A64"/>
<path d="M152.742 115.26C152.861 116.229 152.951 117.162 151.575 117.55C153.057 117.368 153.058 118.292 153.272 119.448C153.167 118.266 153.168 117.43 154.316 117.233C153.098 117.184 153.064 116.646 152.742 115.26Z" fill="#EBEBEB"/>
<path d="M141.335 144.396C141.64 148.377 141.42 149.774 138.026 150.808C141.583 150.678 142.169 152.884 142.774 156.116C142.485 152.846 142.913 150.308 146.125 149.754C142.716 149.615 142.229 148.221 141.335 144.396Z" fill="#E0E0E0"/>
<path d="M249.977 173.066C250.645 177.003 251.197 178.305 254.739 178.488C251.257 179.222 251.221 181.504 251.417 184.79C250.906 181.543 249.876 179.184 246.626 179.428C249.9 178.464 250.036 176.994 249.977 173.066Z" fill="#E0E0E0"/>
<path d="M260.411 181.615C260.834 184.116 261.184 184.945 263.434 185.059C261.223 185.525 261.201 186.974 261.326 189.062C261 186.999 260.348 185.501 258.283 185.655C260.36 185.046 260.45 184.111 260.411 181.615Z" fill="#455A64"/>
<path d="M256.091 167.767C256.322 169.129 256.513 169.579 257.741 169.644C256.537 169.899 256.521 170.686 256.589 171.824C256.415 170.699 256.061 169.898 254.933 169.969C256.064 169.635 256.114 169.127 256.091 167.767Z" fill="#455A64"/>
<path d="M230.463 203.023C232.729 202.645 234.042 202.559 236.045 204.177C238.048 205.795 247.83 212.52 247.83 212.52L246.566 220.736C245.253 220.492 243.969 220.116 242.733 219.614C240.535 218.753 232.578 212.497 232.578 212.497L230.463 203.023Z" fill="#333333"/>
<path opacity="0.1" d="M230.463 203.023C232.729 202.645 234.042 202.559 236.045 204.177C238.048 205.795 247.83 212.52 247.83 212.52L246.566 220.736C245.253 220.492 243.969 220.116 242.733 219.614C240.535 218.753 232.578 212.497 232.578 212.497L230.463 203.023Z" fill="black"/>
<path d="M235.337 201.377C234.763 200.938 234.086 200.439 234.229 200.035C234.388 199.56 234.601 199.104 234.862 198.675C235.038 198.454 235.431 198.685 235.598 199.039C235.696 199.385 235.716 199.748 235.657 200.103L235.337 201.377Z" fill="#C8856A"/>
<path d="M235.578 199.754C236.146 199.366 236.972 199.611 237.375 200.541C237.777 201.472 239.046 203.988 238.434 204.868C238.292 205.109 238.069 205.292 237.805 205.386C237.54 205.48 237.251 205.478 236.989 205.38C236.989 205.38 234.38 200.582 235.578 199.754Z" fill="#E0E0E0"/>
<path d="M240.086 201.124C240.033 200.921 239.937 200.732 239.805 200.569C239.672 200.406 239.506 200.273 239.318 200.179C238.743 199.753 238.142 199.363 237.519 199.01C237.183 198.884 236.837 199.161 236.603 199.465C236.368 199.769 235.879 200.35 235.855 200.64C235.888 200.905 235.992 201.156 236.156 201.368L237.241 203.983C237.241 203.983 237.671 203.962 237.763 203.767C237.744 203.909 238.078 204.183 238.142 204.183L238.277 204.628C238.277 204.628 238.094 205.133 237.1 205.115C236.106 205.098 234.967 205.692 234.837 206.588C234.707 207.484 237.921 211.411 237.921 211.411C238.587 211.364 239.236 211.186 239.833 210.889C241.176 210.326 241.905 208.608 241.905 208.608C241.905 208.608 239.812 206.348 239.916 205.992C240.02 205.637 240.348 204.856 240.495 204.483C240.641 204.111 240.555 203.803 240.646 203.565C240.736 203.403 240.785 203.223 240.788 203.038C240.792 202.854 240.751 202.671 240.668 202.507C240.717 202.21 240.701 201.906 240.623 201.616C240.508 201.394 240.318 201.22 240.086 201.124Z" fill="#C8856A"/>
<path opacity="0.5" d="M239.567 204.223C239.15 204.246 238.733 203.756 238.506 203.465C238.278 203.174 237.937 203.36 237.767 203.767C237.748 203.909 238.082 204.182 238.146 204.182L238.28 204.628C238.28 204.628 238.098 205.132 237.104 205.115C236.11 205.097 234.971 205.691 234.841 206.587C234.711 207.484 237.925 211.41 237.925 211.41C238.591 211.363 239.24 211.186 239.837 210.889C241.18 210.326 241.909 208.607 241.909 208.607C241.909 208.607 239.815 206.347 239.92 205.992C240.001 205.707 240.165 205.316 240.38 204.784C240.48 204.525 239.965 204.206 239.567 204.223Z" fill="#AF6152"/>
<path d="M239.391 200.74C239.304 200.751 239.215 200.738 239.135 200.704L238.891 200.61L238.427 200.412C238.127 200.275 237.81 200.18 237.484 200.13C237.341 200.107 237.195 200.135 237.07 200.208C236.947 200.311 236.839 200.43 236.749 200.562C236.555 200.833 236.378 201.126 236.177 201.405C236.294 201.082 236.439 200.77 236.61 200.472C236.698 200.306 236.815 200.156 236.956 200.031C237.12 199.919 237.319 199.872 237.516 199.899C237.865 199.953 238.201 200.071 238.507 200.247C238.66 200.324 238.807 200.413 238.938 200.505C239.072 200.613 239.226 200.693 239.391 200.74Z" fill="#AF6152"/>
<path d="M239.513 201.86C239.434 201.88 239.351 201.872 239.278 201.837C239.203 201.813 239.129 201.783 239.059 201.748L238.634 201.542C238.365 201.406 238.083 201.296 237.793 201.215C237.733 201.198 237.67 201.193 237.608 201.201C237.545 201.208 237.485 201.228 237.431 201.259C237.312 201.345 237.202 201.443 237.103 201.55L236.461 202.223C236.61 201.947 236.783 201.685 236.977 201.438C237.074 201.309 237.188 201.192 237.314 201.09C237.393 201.043 237.48 201.013 237.571 201.002C237.662 200.991 237.755 200.999 237.842 201.025C238.151 201.111 238.445 201.243 238.714 201.416C238.848 201.499 238.972 201.592 239.098 201.68C239.217 201.777 239.36 201.839 239.513 201.86Z" fill="#AF6152"/>
<path d="M239.614 203.074C239.476 203.127 239.334 203.049 239.205 203.005C239.076 202.961 238.962 202.879 238.841 202.811L238.497 202.61C238.377 202.545 238.263 202.467 238.153 202.421C237.948 202.311 237.732 202.441 237.51 202.592C237.29 202.746 237.078 202.912 236.875 203.088C237.02 202.854 237.199 202.643 237.406 202.461C237.515 202.359 237.64 202.276 237.776 202.216C237.851 202.184 237.932 202.169 238.014 202.17C238.096 202.172 238.176 202.191 238.249 202.226C238.376 202.286 238.497 202.357 238.611 202.437C238.727 202.509 238.84 202.587 238.948 202.67L239.27 202.913C239.364 203.002 239.485 203.058 239.614 203.074Z" fill="#AF6152"/>
<path opacity="0.5" d="M240.522 201.449C240.552 201.497 240.571 201.55 240.578 201.605C240.585 201.661 240.581 201.717 240.565 201.77C240.549 201.824 240.521 201.874 240.485 201.916C240.448 201.958 240.403 201.992 240.352 202.016C240.1 202.118 240.414 202.295 240.668 202.507C240.717 202.21 240.701 201.906 240.623 201.616C240.597 201.556 240.563 201.5 240.522 201.449Z" fill="#AF6152"/>
<path d="M238.141 204.175C238.335 204.178 238.526 204.119 238.684 204.005C238.486 204.07 238.274 204.075 238.074 204.02C237.993 203.959 237.928 203.881 237.882 203.791C237.836 203.702 237.812 203.603 237.81 203.503C237.763 203.588 237.745 203.687 237.761 203.784C237.777 203.917 237.983 204.194 238.141 204.175Z" fill="#874C4C"/>
<path d="M237.606 211.318C237.606 211.318 237.941 211.834 239.734 214.418C240.595 215.659 242.602 218.678 244.645 219.909C247.318 221.516 249.088 220.817 249.851 219.962C250.615 219.108 250.361 215.646 249.036 213.845C247.932 212.348 247.309 212.154 245.184 210.551C243.059 208.948 240.935 207.384 240.935 207.384C240.764 209.97 237.606 211.318 237.606 211.318Z" fill="#333333"/>
<path d="M216.245 230.533C217.957 238.157 220.331 242.967 224.244 245.481L237.801 231.638L236.656 223.912L216.245 230.533Z" fill="#455A64"/>
<path d="M215.01 207.836C215.01 207.836 218.71 205.39 221.949 204.443C224.713 203.602 227.576 203.124 230.463 203.023C230.463 203.023 233.03 203.046 234.931 208.265C236.264 211.925 235.991 215.857 236.403 219.371C236.78 220.918 237.23 221.747 237.809 223.492C237.936 224.273 237.322 225.201 236.438 226.014C234.907 227.425 232.099 228.789 228.635 230.716C225.232 233.882 221.429 236.109 217.948 236.688C215.991 231.564 214.796 224.498 214.3 221.93C212.663 213.449 214.074 211.292 215.01 207.836Z" fill="#333333"/>
<path opacity="0.3" d="M215.01 207.836C215.01 207.836 218.71 205.39 221.949 204.443C224.713 203.602 227.576 203.124 230.463 203.023C230.463 203.023 233.03 203.046 234.931 208.265C236.264 211.925 235.991 215.857 236.403 219.371C236.78 220.918 237.23 221.747 237.809 223.492C237.936 224.273 237.322 225.201 236.438 226.014C234.907 227.425 232.099 228.789 228.635 230.716C225.232 233.882 221.429 236.109 217.948 236.688C215.991 231.564 214.796 224.498 214.3 221.93C212.663 213.449 214.074 211.292 215.01 207.836Z" fill="black"/>
<path d="M230.887 188.004C229.657 186.128 227.322 184.642 224.016 184.952C219.986 185.328 217.513 186.977 217.615 189.538C217.27 189.677 216.962 189.894 216.714 190.171C216.467 190.448 216.286 190.777 216.187 191.135C215.839 192.436 216.013 193.594 217.26 196.81C217.796 198.248 218.467 199.633 219.264 200.945C219.52 201.355 219.924 201.652 220.394 201.774L220.207 198.85L220.062 197.673C220.062 197.673 221.497 197.496 221.352 193.488C221.334 192.944 221.371 192.502 221.334 192.136L231.462 192.39C231.462 192.39 232.114 189.88 230.887 188.004Z" fill="#263238"/>
<path d="M217.552 199.805C218.727 200.35 219.753 199.256 219.753 199.256C219.753 199.256 219.999 202.014 220.081 203.529C220.163 205.044 219.723 205.273 219.253 205.486C220.273 206.278 221.45 206.847 222.706 207.153C225.932 207.821 228.976 206.384 227.209 204.502L227.141 202.873C227.973 202.868 228.801 202.753 229.603 202.531C231.186 202.002 231.812 201.137 231.99 199.561C232.239 197.388 232.191 195.494 231.643 194.319C231.545 194.102 231.483 193.87 231.458 193.633C231.41 192.711 231.297 191.793 231.121 190.886C230.95 190.179 230.53 189.557 229.938 189.132C228.102 187.868 225.925 189.911 223.704 190.877C222.785 191.277 220.892 191.306 220.285 191.05C221.104 191.885 221.005 193.494 220.638 195.682C220.515 196.438 220.259 196.601 220.095 196.601C219.44 196.614 219.167 195.819 218.748 195.405C218.539 195.245 218.296 195.136 218.038 195.086C217.78 195.036 217.514 195.046 217.26 195.116C217.007 195.185 216.773 195.313 216.577 195.488C216.381 195.663 216.229 195.88 216.132 196.124C215.979 196.458 215.895 196.82 215.884 197.186C215.873 197.553 215.935 197.919 216.067 198.261C216.2 198.604 216.399 198.917 216.654 199.182C216.909 199.447 217.214 199.659 217.552 199.805Z" fill="#C8856A"/>
<path d="M227.141 202.873C224.937 202.841 223.368 202.54 222.495 201.914C221.697 201.297 221.027 200.531 220.522 199.659C220.522 199.659 220.934 201.712 222.182 202.622C223.43 203.532 224.887 203.998 227.183 203.903L227.141 202.873Z" fill="#AF6152"/>
<path d="M226.801 193.396L227.509 197.563L229.697 196.657C228.989 195.368 227.999 194.254 226.801 193.396Z" fill="#AF6152"/>
<path d="M224.803 192.793L223.474 193.697C223.413 193.612 223.369 193.516 223.345 193.414C223.321 193.312 223.317 193.206 223.335 193.103C223.352 193 223.39 192.901 223.446 192.812C223.502 192.724 223.576 192.647 223.662 192.587C223.843 192.471 224.062 192.427 224.274 192.466C224.485 192.504 224.675 192.621 224.803 192.793Z" fill="#263238"/>
<path d="M228.873 192.062L230.491 192.202C230.503 192.099 230.494 191.993 230.465 191.893C230.437 191.793 230.388 191.699 230.323 191.617C230.257 191.536 230.176 191.468 230.084 191.418C229.992 191.367 229.891 191.336 229.787 191.325C229.569 191.307 229.352 191.374 229.182 191.511C229.011 191.648 228.901 191.846 228.873 192.062Z" fill="#263238"/>
<path d="M224.166 195.161C224.209 195.511 224.704 195.737 225.199 195.564C225.401 195.513 225.575 195.386 225.684 195.208C225.792 195.031 225.826 194.819 225.779 194.617C225.71 194.764 225.609 194.894 225.483 194.997C225.357 195.101 225.21 195.176 225.052 195.216C224.908 195.266 224.756 195.287 224.604 195.277C224.451 195.268 224.303 195.229 224.166 195.161Z" fill="#263238"/>
<path d="M228.963 193.963C228.93 194.318 229.329 194.663 229.844 194.627C230.053 194.633 230.256 194.556 230.408 194.413C230.561 194.271 230.651 194.074 230.659 193.866C230.554 193.988 230.424 194.086 230.277 194.153C230.131 194.22 229.971 194.254 229.81 194.253C229.657 194.263 229.503 194.243 229.357 194.193C229.212 194.143 229.078 194.065 228.963 193.963Z" fill="#263238"/>
<path d="M214.995 207.845C211.677 209.818 211.384 212.873 213.053 217.375C214.441 221.12 217.066 227.09 218.858 229.599C220.308 231.635 221.544 232.224 222.121 232.324L224.899 222.636L221.785 214.702C221.785 214.702 219.024 207.594 214.995 207.845Z" fill="#333333"/>
<path opacity="0.15" d="M223.706 219.596L222.908 217.563C221.981 219.067 220.985 220.954 220.441 221.965C219.721 223.303 219.697 226.039 220.02 227.532C220.249 228.583 222.435 222.994 223.706 219.596Z" fill="black"/>
<path d="M235.825 199.811C235.684 199.662 235.517 199.538 235.332 199.446L235.247 199.405C234.921 199.263 234.572 199.181 234.217 199.161C233.195 199.149 232.184 199.377 231.266 199.827C230.348 200.276 229.55 200.935 228.935 201.749C228.73 202.04 228.581 202.366 228.497 202.711C228.488 202.741 228.481 202.773 228.476 202.805C228.436 203.005 228.431 203.21 228.463 203.412C228.664 205.048 230.588 207.197 232.194 207.733L232.24 207.751L232.315 207.774L232.476 207.818L232.53 207.831L232.653 207.856L232.876 207.88C233.619 207.888 234.354 207.722 235.021 207.395C235.688 207.069 236.269 206.59 236.717 205.999C236.758 205.939 236.796 205.877 236.83 205.814L236.891 205.691L236.91 205.652L236.979 205.493C236.984 205.47 236.992 205.447 237.002 205.426L237.02 205.372C237.534 203.795 237.007 200.969 235.825 199.811Z" fill="white"/>
<path d="M233.372 199.384C233.651 199.348 233.933 199.338 234.213 199.356C234.55 199.373 234.881 199.451 235.189 199.587L235.257 199.618C235.425 199.705 235.575 199.821 235.7 199.962C236.786 201.024 237.363 203.741 236.822 205.357L236.825 205.38L236.828 205.408L236.81 205.458L236.752 205.604L236.736 205.634L236.684 205.736C236.654 205.795 236.62 205.853 236.582 205.908C236.215 206.392 235.754 206.798 235.228 207.103C234.701 207.407 234.119 207.604 233.515 207.682C233.314 207.707 233.112 207.713 232.91 207.701L232.711 207.677L232.596 207.656L232.572 207.659L232.549 207.661L232.4 207.62L232.333 207.6L232.272 207.783L232.308 207.591C230.716 207.034 228.904 204.923 228.718 203.4C228.69 203.222 228.693 203.039 228.727 202.862C228.733 202.832 228.74 202.804 228.749 202.775C228.83 202.454 228.969 202.149 229.158 201.877C229.662 201.205 230.293 200.64 231.016 200.212C231.739 199.784 232.54 199.503 233.372 199.384ZM233.348 199.188C231.666 199.394 229.823 200.417 228.939 201.748C228.734 202.039 228.585 202.365 228.501 202.71C228.491 202.741 228.485 202.772 228.48 202.804C228.44 203.004 228.435 203.21 228.467 203.411C228.668 205.047 230.592 207.197 232.198 207.732L232.244 207.751L232.319 207.773L232.48 207.817L232.534 207.831L232.657 207.855L232.88 207.88C233.092 207.891 233.305 207.883 233.517 207.857C234.148 207.774 234.756 207.567 235.306 207.248C235.856 206.929 236.337 206.504 236.721 205.998C236.762 205.939 236.8 205.877 236.834 205.813L236.895 205.69L236.914 205.652L236.983 205.492C236.988 205.469 236.996 205.447 237.006 205.425L237.024 205.372C237.552 203.773 237.024 200.947 235.85 199.789C235.709 199.639 235.542 199.515 235.357 199.423L235.272 199.382C234.946 199.24 234.597 199.158 234.242 199.138C233.943 199.127 233.644 199.144 233.348 199.188Z" fill="#E0E0E0"/>
<path d="M235.787 204.751C236.923 204.715 237.254 205.391 236.528 206.253C235.649 207.2 234.448 207.788 233.158 207.901C232.023 207.941 231.691 207.285 232.414 206.4C233.295 205.453 234.497 204.865 235.787 204.751Z" fill="#EBEBEB"/>
<path d="M235.673 204.924C236.695 204.878 236.984 205.472 236.323 206.25C235.52 207.095 234.437 207.624 233.274 207.74C232.252 207.785 231.959 207.192 232.623 206.414C233.427 205.568 234.51 205.04 235.673 204.924Z" fill="#E0E0E0"/>
<path opacity="0.1" d="M235.673 204.924C236.695 204.878 236.984 205.472 236.323 206.25C235.52 207.095 234.437 207.624 233.274 207.74C232.252 207.785 231.959 207.192 232.623 206.414C233.427 205.568 234.51 205.04 235.673 204.924Z" fill="black"/>
<path d="M235.673 204.924C234.51 205.04 233.427 205.568 232.623 206.414C232.546 206.451 232.477 206.504 232.42 206.568C232.363 206.632 232.319 206.707 232.291 206.788C232.264 206.87 232.252 206.955 232.257 207.041C232.263 207.126 232.285 207.21 232.323 207.287C232.36 207.364 232.413 207.433 232.478 207.489C232.542 207.546 232.617 207.589 232.699 207.617C232.78 207.645 232.866 207.656 232.952 207.651C233.038 207.645 233.122 207.623 233.199 207.586C234.363 207.47 235.445 206.939 236.248 206.092C236.331 206.058 236.406 206.008 236.469 205.944C236.532 205.88 236.581 205.803 236.613 205.72C236.645 205.636 236.659 205.547 236.655 205.458C236.651 205.368 236.628 205.281 236.589 205.2C236.549 205.12 236.494 205.049 236.425 204.991C236.357 204.933 236.277 204.89 236.191 204.864C236.105 204.838 236.015 204.83 235.926 204.84C235.836 204.851 235.75 204.879 235.673 204.924Z" fill="#E0E0E0"/>
<path d="M227.299 205.303C227.125 204.663 226.804 204.042 226.961 203.497C227.2 202.671 227.149 202.127 227.371 201.853C227.594 201.579 228.154 201.904 228.285 202.291L227.299 205.303Z" fill="#AF6152"/>
<path d="M227.526 204.415C227.769 203.618 228.055 202.834 228.382 202.068C228.743 201.459 229.188 200.905 229.704 200.42C230.221 199.874 230.691 199.147 230.967 199.369C231.11 199.476 231.212 199.629 231.256 199.803C231.301 199.976 231.285 200.159 231.212 200.322C231.042 200.701 230.539 201.552 230.539 201.552C230.539 201.552 231.617 200.559 232.026 200.111C232.435 199.662 232.726 199.3 233.018 199.491C233.309 199.682 233.304 200.093 232.989 200.59C232.663 201.102 232.311 201.597 231.935 202.073C231.623 202.466 231.378 202.851 231.378 202.851C231.378 202.851 232.411 201.947 232.753 201.571C233.095 201.194 233.504 200.714 233.684 200.847C233.939 201.035 234.043 201.552 233.618 202.197C232.967 203.181 232.312 204.01 232.017 204.473C231.722 204.935 231.4 205.504 231.588 205.601L232.323 204.714C232.747 204.192 233.361 203.392 233.675 203.25C233.99 203.107 234.468 203.192 234.195 203.867C233.836 204.673 233.394 205.44 232.876 206.156C232.283 207.025 232.141 207.178 232.133 207.569C232.125 207.96 232.622 209.528 232.649 210.266C232.68 211.138 232.38 211.334 231.982 212.168C231.666 212.852 230.809 215.641 230.809 215.641C228.241 215.16 227.24 213.973 227.209 212.391C227.209 212.391 227.871 210.805 227.842 209.661C227.802 208.161 227.376 206.648 227.3 205.96C227.242 205.434 227.32 204.903 227.526 204.415Z" fill="#C8856A"/>
<path d="M227.834 209.658C227.733 208.486 227.544 207.323 227.271 206.179C227.213 205.884 227.199 205.583 227.229 205.284C227.284 204.991 227.359 204.702 227.455 204.42C227.613 203.851 227.817 203.296 228.026 202.756C228.14 202.48 228.239 202.209 228.371 201.917C228.523 201.66 228.7 201.418 228.899 201.196C229.288 200.75 229.714 200.339 230.09 199.886C230.189 199.779 230.287 199.667 230.394 199.558C230.496 199.445 230.621 199.355 230.761 199.294C230.804 199.283 230.848 199.283 230.89 199.295C230.933 199.306 230.971 199.329 231.001 199.36C231.058 199.413 231.109 199.471 231.155 199.533C231.243 199.66 231.292 199.81 231.296 199.965C231.294 200.117 231.254 200.265 231.181 200.398C231.113 200.533 231.045 200.661 230.969 200.79C230.824 201.047 230.676 201.3 230.518 201.55C230.667 201.293 230.807 201.037 230.943 200.773C231.108 200.532 231.212 200.254 231.244 199.964C231.235 199.826 231.188 199.694 231.109 199.582C231.02 199.481 230.915 199.339 230.796 199.381C230.668 199.441 230.555 199.527 230.463 199.633C230.364 199.737 230.265 199.849 230.172 199.964C229.432 200.879 228.439 201.622 228.151 202.797C227.939 203.345 227.734 203.895 227.556 204.463C227.46 204.739 227.383 205.021 227.328 205.307C227.297 205.596 227.307 205.887 227.358 206.172C227.453 206.75 227.581 207.339 227.667 207.91C227.762 208.489 227.817 209.072 227.834 209.658Z" fill="#874C4C"/>
<path d="M230.538 201.552C230.344 201.791 230.126 202.001 229.948 202.246C229.771 202.489 229.616 202.748 229.487 203.019C229.34 203.288 229.192 203.553 229.036 203.815C228.959 203.95 228.87 204.078 228.771 204.198C228.667 204.317 228.527 204.398 228.372 204.431C228.67 204.314 228.79 204.025 228.929 203.753C229.067 203.481 229.202 203.209 229.345 202.941C229.479 202.662 229.649 202.402 229.85 202.166C230.061 201.942 230.292 201.737 230.538 201.552Z" fill="#AF6152"/>
<path d="M231.398 202.848C231.228 203.06 231.027 203.252 230.848 203.453C230.758 203.546 230.678 203.648 230.609 203.758C230.552 203.872 230.491 203.999 230.434 204.122C230.316 204.367 230.198 204.613 230.068 204.852C229.947 205.096 229.806 205.331 229.646 205.553C229.755 205.304 229.848 205.05 229.953 204.798C230.058 204.546 230.172 204.301 230.286 204.052C230.347 203.929 230.4 203.811 230.472 203.683C230.553 203.565 230.649 203.458 230.757 203.365C230.947 203.182 231.162 203.017 231.398 202.848Z" fill="#AF6152"/>
<path opacity="0.5" d="M232.017 204.473L232.122 204.317C231.724 204.751 231.373 205.227 231.076 205.735C230.927 206.021 230.935 206.151 231.015 206.185C231.096 206.219 231.312 205.926 231.312 205.926L231.588 205.605C231.399 205.501 231.726 204.935 232.017 204.473Z" fill="#AF6152"/>
<path d="M231.588 205.601C231.438 205.814 231.289 206.036 231.146 206.241C231.071 206.345 231.001 206.458 230.938 206.565C230.875 206.672 230.814 206.791 230.739 206.9C230.772 206.776 230.817 206.651 230.861 206.526C230.919 206.408 230.985 206.293 231.059 206.184C231.201 205.961 231.379 205.764 231.588 205.601Z" fill="#AF6152"/>
<path d="M230.809 202.809C230.794 202.779 230.777 202.751 230.758 202.724C230.755 202.696 230.713 202.678 230.69 202.652C230.634 202.599 230.572 202.553 230.505 202.516C230.434 202.475 230.357 202.445 230.278 202.424C230.244 202.415 230.21 202.41 230.176 202.409C230.144 202.413 230.117 202.416 230.121 202.455C230.125 202.471 230.133 202.485 230.144 202.496C230.156 202.507 230.17 202.515 230.185 202.519L230.217 202.515L230.271 202.537L230.339 202.564C230.386 202.588 230.431 202.616 230.473 202.647C230.493 202.661 230.512 202.676 230.531 202.692L230.558 202.716C230.598 202.764 230.642 202.808 230.69 202.848L230.722 202.88C230.754 202.919 230.821 202.907 230.805 202.845C230.807 202.833 230.808 202.821 230.809 202.809Z" fill="#AF6152"/>
<path d="M230.386 202.881C230.386 202.881 230.359 202.86 230.346 202.85L230.319 202.829L230.292 202.833L230.231 202.792L230.115 202.699C230.115 202.699 230.076 202.672 230.06 202.706C230.054 202.716 230.052 202.728 230.053 202.741C230.054 202.753 230.06 202.764 230.068 202.772C230.107 202.815 230.149 202.854 230.195 202.888L230.277 202.942C230.294 202.954 230.313 202.964 230.333 202.971C230.333 202.971 230.363 202.987 230.372 202.966C230.382 202.945 230.4 202.903 230.386 202.881Z" fill="#AF6152"/>
<path d="M229.143 202.145C229.145 202.132 229.144 202.118 229.139 202.106C229.126 202.08 229.106 202.058 229.083 202.041C229.058 202.021 229.032 202.003 229.004 201.987C228.957 201.96 228.908 201.938 228.856 201.922C228.799 201.901 228.74 201.889 228.68 201.888C228.652 201.885 228.623 201.889 228.597 201.898C228.573 201.901 228.574 201.936 228.581 201.959C228.587 201.975 228.597 201.988 228.611 201.997C228.625 202.006 228.642 202.011 228.659 202.01L228.728 202.021L228.79 202.033L228.861 202.06L228.891 202.077L228.951 202.113L228.978 202.134L229.022 202.164C229.022 202.164 229.052 202.184 229.065 202.191L229.103 202.206C229.108 202.209 229.113 202.211 229.119 202.21C229.125 202.209 229.13 202.207 229.134 202.202L229.131 202.179L229.143 202.145Z" fill="#AF6152"/>
<path d="M228.934 202.33C228.931 202.307 228.882 202.297 228.861 202.291L228.822 202.296L228.76 202.284L228.703 202.271L228.679 202.274L228.64 202.279L228.612 202.282C228.608 202.283 228.604 202.285 228.601 202.287C228.598 202.29 228.595 202.293 228.593 202.297C228.592 202.3 228.591 202.304 228.591 202.309C228.59 202.313 228.591 202.317 228.593 202.32C228.594 202.33 228.597 202.34 228.602 202.348C228.607 202.356 228.614 202.363 228.623 202.369C228.676 202.391 228.732 202.407 228.789 202.416L228.85 202.428L228.878 202.425L228.945 202.417C228.947 202.407 228.946 202.398 228.941 202.389C228.944 202.379 228.945 202.369 228.944 202.359C228.943 202.349 228.939 202.339 228.934 202.33Z" fill="#AF6152"/>
<path d="M231.415 203.933C231.301 203.899 231.193 203.849 231.093 203.786C230.984 203.715 230.908 203.617 230.803 203.543C230.803 203.543 230.767 203.547 230.77 203.567C230.774 203.608 230.787 203.647 230.807 203.683C230.827 203.719 230.855 203.75 230.887 203.775C230.937 203.825 230.992 203.869 231.052 203.906C231.163 203.986 231.293 204.036 231.429 204.051C231.436 204.052 231.443 204.052 231.45 204.049C231.456 204.047 231.462 204.044 231.467 204.039C231.472 204.034 231.476 204.028 231.478 204.021C231.48 204.015 231.48 204.008 231.479 204.001C231.477 203.985 231.469 203.97 231.458 203.957C231.446 203.945 231.431 203.937 231.415 203.933Z" fill="#AF6152"/>
<path d="M231.01 204.154L230.967 204.132L230.863 204.061C230.815 204.027 230.762 203.994 230.718 203.955C230.673 203.917 230.663 203.93 230.651 203.964C230.639 203.997 230.658 204.022 230.66 204.042C230.714 204.094 230.771 204.143 230.83 204.188L230.909 204.243L230.952 204.269L230.983 204.289C231.004 204.296 231.026 204.302 231.049 204.305C231.084 204.301 231.088 204.268 231.077 204.246C231.067 204.208 231.043 204.176 231.01 204.154Z" fill="#AF6152"/>
<path d="M232.445 205.842C232.399 205.792 232.346 205.747 232.289 205.71C232.228 205.666 232.162 205.63 232.092 205.603C232.06 205.591 232.027 205.583 231.993 205.579C231.942 205.585 231.945 205.641 232.003 205.661C232.032 205.68 232.062 205.696 232.093 205.71C232.119 205.721 232.145 205.734 232.17 205.748L232.2 205.769L232.262 205.813L232.289 205.837L232.339 205.891C232.375 205.939 232.415 205.983 232.46 206.024C232.46 206.024 232.527 206.051 232.53 206.015C232.534 205.979 232.496 205.896 232.445 205.842Z" fill="#AF6152"/>
<path d="M232.222 206.013C232.204 205.988 232.18 205.969 232.152 205.958L232.122 205.942L232.049 205.907L231.918 205.847L231.882 205.851C231.878 205.854 231.873 205.857 231.87 205.861C231.866 205.864 231.863 205.869 231.861 205.874C231.859 205.889 231.862 205.904 231.868 205.917C231.875 205.931 231.885 205.942 231.898 205.949L232.035 206.016L232.103 206.047L232.133 206.064L232.174 206.078L232.206 206.075C232.233 206.071 232.233 206.031 232.222 206.013Z" fill="#AF6152"/>
<path d="M227.27 212.037L221.606 222.136C221.117 223.012 219.658 225.561 220.105 228.84C220.385 230.897 221.092 233.331 224.232 231.989C226.535 231.006 227.412 230.006 228.524 227.304C229.19 225.685 229.872 222.412 230.287 220.481C231.003 217.131 231.376 214.95 231.376 214.95C230.412 215.28 227.624 213.623 227.27 212.037Z" fill="#333333"/>
<path d="M225.941 198.839C225.937 199.131 226.05 199.413 226.255 199.622C226.46 199.832 226.741 199.951 227.034 199.955C227.328 199.958 227.611 199.846 227.822 199.641C228.032 199.437 228.153 199.158 228.157 198.865L225.941 198.839Z" fill="#874C4C"/>
<path d="M227.043 199.962C227.283 199.963 227.516 199.887 227.709 199.745C227.497 199.518 227.23 199.35 226.933 199.258C226.636 199.166 226.32 199.152 226.016 199.22C226.089 199.434 226.227 199.62 226.411 199.753C226.595 199.886 226.816 199.959 227.043 199.962Z" fill="#F28F8F"/>
<path d="M282.528 260.911C282.541 261.263 282.429 261.608 282.211 261.886C281.665 262.512 280.933 262.95 280.121 263.134C279.37 263.376 278.588 263.506 277.8 263.519C277.008 263.53 276.228 263.327 275.544 262.932C275.029 262.58 274.55 262.18 274.113 261.737C273.766 261.4 273.368 261.118 272.934 260.902C272.736 260.829 272.534 260.769 272.328 260.722C272.09 260.639 271.855 260.549 271.614 260.475C271.011 260.286 270.111 260.058 269.682 259.593C269.175 259.054 269.216 258.503 269.024 257.499C268.752 256.879 268.569 256.36 268.569 256.36C267.416 255.279 264.176 252.578 263.061 251.644L267.738 246.661C269.866 249.402 271.158 251.323 272.852 253.293C273.841 254.442 274.405 255.03 274.921 255.576C275.63 256.313 276.403 256.985 277.231 257.587C277.698 257.946 278.193 258.266 278.713 258.544C279.099 258.756 279.499 258.943 279.909 259.102C280.592 259.384 280.779 259.373 281.416 259.642C281.697 259.737 281.948 259.905 282.143 260.128C282.338 260.351 282.471 260.621 282.528 260.911Z" fill="#C8856A"/>
<path d="M269.049 260.435C269.104 260.677 269.198 260.907 269.329 261.118C269.805 261.74 271.439 262.014 272.055 262.145C272.908 262.302 273.668 262.779 274.179 263.478C275.114 264.499 276.382 265.158 277.759 265.336C279.625 265.619 281.535 265.331 283.234 264.508C285.362 263.534 285.203 262.176 285.203 262.176C285.203 262.176 285 260.914 284.394 260.861C283.787 260.808 269.049 260.435 269.049 260.435Z" fill="#263238"/>
<path d="M268.557 256.366C268.311 256.444 268.363 256.605 268.374 256.762C268.503 257.226 268.562 257.706 268.549 258.187C268.472 258.97 268.644 259.757 269.041 260.436C269.971 261.493 272.661 261.314 273.877 262.324C275.093 263.333 276.328 264.659 279.399 264.485C282.469 264.312 284.449 262.81 284.773 261.834C285.097 260.858 284.402 260.211 282.27 259.688C280.005 259.134 276.562 256.629 276.561 256.625C276.479 256.572 276.403 256.509 276.328 256.451C275.948 256.155 275.109 255.577 274.94 255.08C274.897 254.895 274.836 254.714 274.757 254.541C274.704 254.472 274.635 254.417 274.556 254.38C274.477 254.343 274.391 254.326 274.304 254.33C273.462 254.471 272.666 254.813 271.986 255.327C271.65 255.543 271.363 255.827 271.144 256.159L271.098 256.241C271 256.41 270.959 256.607 270.983 256.801C271.086 257.104 271.257 257.38 271.482 257.608C271.19 257.535 270.921 257.391 270.699 257.19C270.567 257.055 270.404 256.956 270.223 256.902C269.654 256.824 269.079 256.903 268.871 256.741C268.742 256.638 268.636 256.511 268.557 256.366Z" fill="#37474F"/>
<path d="M277.341 264.28C277.204 263.598 277.256 262.891 277.493 262.235C277.73 261.58 278.142 261.002 278.685 260.562C280.598 258.874 282.124 259.248 282.922 259.56C283.875 259.925 285.334 260.829 284.863 261.883C284.355 263.021 283.264 263.78 281.022 264.386C278.781 264.991 277.341 264.28 277.341 264.28Z" fill="#FAFAFA"/>
<path d="M272.55 258.257C272.589 258.247 272.626 258.227 272.656 258.2C272.686 258.173 272.709 258.139 272.723 258.1C272.883 257.682 274.103 255.987 275.763 256.015C275.794 255.816 275.567 255.696 275.356 255.666C273.618 255.748 272.431 257.451 272.236 257.949C272.224 257.98 272.219 258.013 272.221 258.046C272.222 258.078 272.23 258.111 272.245 258.14C272.259 258.17 272.28 258.196 272.305 258.218C272.33 258.239 272.359 258.255 272.391 258.265C272.443 258.278 272.499 258.275 272.55 258.257Z" fill="#FAFAFA"/>
<path d="M277 256.938C277.029 256.787 276.676 256.579 276.502 256.601C274.816 256.808 273.752 258.404 273.582 258.879C273.57 258.91 273.565 258.943 273.567 258.976C273.568 259.008 273.576 259.041 273.591 259.07C273.605 259.1 273.626 259.126 273.651 259.147C273.676 259.169 273.705 259.185 273.737 259.195C273.788 259.213 273.845 259.215 273.897 259.199C273.936 259.188 273.972 259.168 274.002 259.141C274.032 259.114 274.056 259.08 274.07 259.042C274.211 258.627 275.412 257.005 277 256.938Z" fill="#FAFAFA"/>
<path d="M280.077 258.806C280.107 258.687 279.783 258.524 279.41 258.45C277.65 258.451 276.427 260.218 276.223 260.709C276.21 260.74 276.205 260.773 276.205 260.807C276.206 260.84 276.214 260.872 276.228 260.902C276.243 260.932 276.263 260.959 276.288 260.981C276.313 261.003 276.342 261.019 276.374 261.029C276.428 261.046 276.485 261.048 276.539 261.033C276.578 261.022 276.614 261.003 276.644 260.975C276.674 260.948 276.697 260.914 276.711 260.876C276.87 260.443 278.283 258.561 280.077 258.806Z" fill="#FAFAFA"/>
<path d="M275.228 260.103C275.267 260.092 275.303 260.073 275.333 260.046C275.363 260.02 275.386 259.987 275.402 259.95C275.558 259.532 276.802 257.866 278.433 257.857C278.453 257.696 278.136 257.523 277.876 257.527C276.154 257.739 275.101 259.326 274.916 259.803C274.904 259.833 274.898 259.866 274.899 259.899C274.901 259.932 274.908 259.965 274.923 259.995C274.937 260.025 274.957 260.051 274.982 260.073C275.006 260.095 275.035 260.112 275.067 260.123C275.121 260.133 275.178 260.127 275.228 260.103Z" fill="#FAFAFA"/>
<path d="M226.402 232.559C228.61 239.597 232.246 242.336 238.46 243.652C245.401 245.122 255.732 245.67 255.732 245.67C256.587 246.915 257.612 248.035 258.777 249C262.449 251.994 263.031 252.858 263.662 253.179C264.294 253.5 264.762 253.566 265.015 253.411L264.451 252.995C264.239 251.587 267.858 247.968 269.077 248.313L269.575 248.948C269.647 248.776 269.668 248.587 269.636 248.403C269.603 248.219 269.518 248.049 269.391 247.911C268.904 247.203 266.172 243.878 261.612 238.436C260.406 236.991 259.873 236.555 255.433 234.017C250.068 230.944 241.268 226.974 241.268 226.974L226.402 232.559Z" fill="#455A64"/>
<path d="M252.194 245.423C252.064 243.623 251.654 235.951 251.137 231.737C249.127 230.709 247.247 229.797 245.505 228.971L237.269 232.161L232.49 241.323C234.316 242.459 236.34 243.244 238.458 243.637C242.838 244.58 248.558 245.137 252.194 245.423Z" fill="#37474F"/>
<path d="M264.454 253.018C264.051 251.2 267.08 247.952 269.079 248.336L270.568 250.324C270.568 250.324 269.452 250.397 268.115 251.593C267.274 252.397 266.703 253.441 266.482 254.581L264.454 253.018Z" fill="#263238"/>
<path opacity="0.2" d="M255.732 245.67C255.306 244.804 255.005 243.882 254.84 242.932C254.803 243.843 254.904 244.754 255.14 245.635L255.732 245.67Z" fill="black"/>
<path d="M259.127 256.018C259.084 256.368 258.913 256.69 258.646 256.922C258.003 257.45 257.205 257.758 256.373 257.798C255.593 257.91 254.801 257.904 254.023 257.78C253.242 257.656 252.51 257.323 251.905 256.817C251.458 256.384 251.055 255.908 250.702 255.396C250.416 255.003 250.072 254.658 249.68 254.37C249.499 254.265 249.311 254.171 249.118 254.089C248.895 253.969 248.687 253.839 248.457 253.724C247.814 253.421 247.224 253.017 246.71 252.528C245.973 251.707 246.212 250.757 246.151 249.737C246.121 249.49 246.126 249.239 246.115 248.989L246.032 248.601C245.529 246.074 243.612 240.821 243.153 239.396L250.846 238.133C251.201 242.422 251.351 245.24 251.493 246.883C251.527 247.753 251.734 248.608 252.102 249.397C252.457 250.24 252.984 251.001 253.648 251.633C254.197 252.167 254.78 252.665 255.395 253.123C255.691 253.327 256.006 253.503 256.336 253.649C256.997 253.923 257.642 254.237 258.267 254.586C258.523 254.729 258.738 254.937 258.888 255.188C259.039 255.439 259.121 255.725 259.127 256.018Z" fill="#C8856A"/>
<path d="M245.934 253.249C245.946 253.497 246.001 253.741 246.095 253.97C246.456 254.666 248.012 255.216 248.6 255.447C249.414 255.746 250.08 256.346 250.462 257.122C251.134 258.298 252.335 259.082 253.67 259.568C255.46 260.164 257.39 260.205 259.205 259.685C261.472 259.088 261.548 257.724 261.548 257.724C261.548 257.724 261.563 256.444 260.972 256.293C260.382 256.143 245.934 253.249 245.934 253.249Z" fill="#263238"/>
<path d="M246.008 248.576C245.752 248.607 245.702 248.853 245.743 249.114C245.881 249.713 245.895 250.333 245.782 250.938C245.7 251.601 245.57 252.465 245.934 253.249C246.677 254.448 249.345 254.734 250.372 255.934C251.399 257.134 252.382 258.658 255.441 259.008C258.5 259.357 260.705 258.218 261.19 257.318C261.676 256.418 261.103 255.66 259.091 254.788C256.957 253.855 253.997 250.797 253.997 250.793C253.926 250.727 253.858 250.657 253.795 250.583C253.475 250.224 252.744 249.517 252.668 248.993C252.656 248.804 252.626 248.617 252.579 248.434C252.539 248.357 252.481 248.29 252.409 248.24C252.338 248.189 252.255 248.157 252.168 248.146C251.315 248.141 250.473 248.343 249.716 248.734C249.345 248.886 249.01 249.114 248.734 249.404L248.675 249.475C248.549 249.625 248.475 249.812 248.464 250.007C248.515 250.323 248.635 250.624 248.816 250.888C248.54 250.768 248.3 250.579 248.117 250.34C248.018 250.2 247.927 250.054 247.844 249.904C247.334 249.015 246.319 249.346 246.074 248.879L246.008 248.576Z" fill="#37474F"/>
<path d="M253.425 258.455C253.41 257.758 253.586 257.07 253.935 256.466C254.284 255.861 254.792 255.363 255.404 255.025C257.58 253.683 259.021 254.314 259.771 254.756C260.636 255.279 261.928 256.419 261.293 257.377C260.596 258.41 259.393 258.972 257.079 259.185C254.765 259.397 253.425 258.455 253.425 258.455Z" fill="#FAFAFA"/>
<path d="M249.756 251.7C249.797 251.697 249.836 251.684 249.871 251.662C249.906 251.64 249.935 251.611 249.957 251.576C250.182 251.198 251.678 249.728 253.305 250.042C253.373 249.85 253.17 249.692 252.964 249.614C251.238 249.4 249.779 250.873 249.503 251.329C249.485 251.357 249.474 251.389 249.469 251.421C249.465 251.454 249.467 251.487 249.476 251.519C249.484 251.551 249.5 251.58 249.52 251.606C249.541 251.632 249.567 251.653 249.596 251.668C249.645 251.696 249.701 251.707 249.756 251.7Z" fill="#FAFAFA"/>
<path d="M254.367 251.17C254.422 251.032 254.111 250.775 253.934 250.737C252.241 250.662 250.918 252.044 250.652 252.482C250.636 252.511 250.625 252.542 250.621 252.575C250.617 252.608 250.62 252.641 250.629 252.672C250.638 252.704 250.654 252.733 250.674 252.759C250.695 252.784 250.721 252.806 250.75 252.821C250.799 252.846 250.855 252.856 250.909 252.849C250.95 252.846 250.989 252.833 251.023 252.811C251.057 252.79 251.086 252.76 251.106 252.725C251.327 252.34 252.794 250.965 254.367 251.17Z" fill="#FAFAFA"/>
<path d="M257.077 253.526C257.127 253.416 256.832 253.197 256.483 253.061C254.747 252.76 253.223 254.298 252.95 254.745C252.934 254.774 252.923 254.805 252.919 254.838C252.915 254.871 252.918 254.904 252.927 254.935C252.936 254.967 252.951 254.996 252.972 255.022C252.993 255.047 253.019 255.068 253.048 255.084C253.096 255.112 253.152 255.123 253.208 255.116C253.248 255.112 253.287 255.098 253.321 255.077C253.355 255.056 253.383 255.026 253.405 254.992C253.647 254.592 255.349 252.977 257.077 253.526Z" fill="#FAFAFA"/>
<path d="M252.076 253.976C252.116 253.972 252.155 253.958 252.19 253.937C252.225 253.915 252.254 253.887 252.276 253.852C252.502 253.478 254.015 252.046 255.623 252.306C255.668 252.153 255.385 251.937 255.129 251.869C253.399 251.787 252.088 253.166 251.822 253.605C251.805 253.633 251.794 253.665 251.789 253.697C251.784 253.73 251.786 253.763 251.795 253.795C251.804 253.827 251.819 253.856 251.84 253.882C251.861 253.908 251.886 253.929 251.916 253.944C251.964 253.972 252.02 253.983 252.076 253.976Z" fill="#FAFAFA"/>
<path d="M243.75 241.254L244.728 244.173C244.728 244.173 245.875 244.785 248.281 244.342C250.686 243.9 251.263 242.988 251.263 242.988L251.078 239.626L243.75 241.254Z" fill="#263238"/>
<path d="M221.521 242.781C224.885 247.896 231.797 247.995 235.872 245.643C243.069 241.477 248.151 222.824 247.258 218.616C246.365 214.408 241.841 213.594 234.96 220.524C231.261 224.248 229.009 227.603 226.417 232.554C225.193 233.138 221.08 235.997 220.163 239.057C220.385 240.37 220.845 241.632 221.521 242.781Z" fill="#455A64"/>
<path d="M226.402 232.559L225.275 233.16C223.883 235.246 223.43 237.389 224.663 240.718C224.375 239.117 224.449 234.703 226.402 232.559Z" fill="#37474F"/>
<path d="M244.548 215.476C246.878 216.046 249.332 217.979 250.101 226.069C250.655 231.883 251.153 237.279 251.302 239.463C251.348 240.102 251.06 240.588 250.29 240.997C248.543 241.872 246.57 242.193 244.635 241.918C244.348 241.877 244.078 241.759 243.853 241.576C243.629 241.393 243.46 241.152 243.363 240.88C242.913 239.621 242.152 237.07 241.395 234.199C240.197 229.651 239.331 225.595 240.104 222.155C241.01 218.192 244.548 215.476 244.548 215.476Z" fill="#455A64"/>
<path d="M240.462 227.28C240.206 229.267 239.784 229.192 240.621 234.147C240.956 236.129 241.378 238.037 241.525 239.006C241.791 238.528 242.066 238 242.316 237.499C241.708 235.447 240.161 229.85 240.462 227.28Z" fill="#37474F"/>
<path d="M161.631 65.2933L161.2 61.186L160.643 61.2445C160.435 61.5009 160.119 61.8392 159.694 62.2593C159.269 62.6793 158.229 63.2813 156.575 64.0651C154.922 64.8489 153.027 65.3531 150.892 65.5774C148.804 65.797 146.913 65.6672 145.221 65.1882C143.569 64.6579 142.221 63.8845 141.176 62.8682C140.126 61.8055 139.245 60.3496 138.535 58.5004C137.336 55.5763 136.446 51.3529 135.866 45.83L134.856 36.2229C134.754 35.2482 136.023 34.1529 138.663 32.9369C141.299 31.6745 144.126 30.8847 147.142 30.5676C151.18 30.1433 153.309 30.9753 153.528 33.0638L154.45 41.8355C155.426 51.1177 156.656 55.6808 158.141 55.5247C159.023 55.432 159.398 54.7591 159.266 53.506L157.203 33.8741C157.101 32.8995 158.463 31.7944 161.289 30.5589C164.11 29.2769 167.192 28.4603 170.533 28.1091C173.875 27.7579 175.641 28.4873 175.831 30.2974L179.292 63.226C180.38 73.5756 173.916 79.487 159.9 80.9602C152.52 81.7358 147.432 81.5433 144.636 80.3826C143.407 79.8548 142.756 79.2428 142.683 78.5466C142.566 77.4327 142.833 75.5043 143.483 72.7613C144.138 70.0647 144.86 68.675 145.649 68.5921C145.834 68.5726 146.499 68.6435 147.642 68.8049C151.174 69.3721 154.077 69.5363 156.351 69.2972C158.672 69.0533 160.153 68.6395 160.796 68.0558C161.485 67.4673 161.763 66.5464 161.631 65.2933Z" fill="#333333"/>
</svg>
